<?xml version="1.0" encoding="utf-8"?>
<!-- Generator: Adobe Illustrator 16.0.0, SVG Export Plug-In . SVG Version: 6.00 Build 0)  -->
<!DOCTYPE svg PUBLIC "-//W3C//DTD SVG 1.1//EN" "http://www.w3.org/Graphics/SVG/1.1/DTD/svg11.dtd">
<svg version="1.1" id="oven_mitten" xmlns="http://www.w3.org/2000/svg" xmlns:xlink="http://www.w3.org/1999/xlink" x="0px"
	 y="0px" width="283px" height="308px" viewBox="0 0 283 308" enable-background="new 0 0 283 308" xml:space="preserve">
<g id="mitten_parts">
	<path fill="#F6A100" d="M122.545,18.636c-49.092,0-88.636,39.544-88.636,88.636v23.864C25.726,135.91,20.272,144.772,20.272,155
		v53.866c0,16.359,2.044,32.726,5.454,48.406h8.183h47.727h124.092l1.365-6.139c2.723-14.315,4.088-28.631,4.088-43.633V107.272
		C211.182,58.181,171.638,18.636,122.545,18.636"/>
	<rect x="27.091" y="270.909" fill="#FFFFFF" width="177.272" height="20.454"/>
	<path fill="#014463" d="M252.091,250.455c-15.001,0-27.272,12.271-27.272,27.272v13.636H218v-27.272
		c0-4.088-2.729-6.818-6.818-6.818H20.272c-4.091,0-6.818,2.73-6.818,6.818v34.091c0,4.088,2.727,6.818,6.818,6.818h184.091h6.818
		h20.455h20.454c15.001,0,27.272-12.271,27.272-27.272C279.363,262.726,267.092,250.455,252.091,250.455 M27.091,270.909h177.272
		v20.454H27.091V270.909z M252.091,291.363h-13.637v-13.636c0-7.497,6.14-13.637,13.637-13.637s13.637,6.14,13.637,13.637
		S259.588,291.363,252.091,291.363"/>
	<path fill="#99561A" d="M127.999,18.636c32.726,13.636,55.911,46.362,55.911,83.862v102.958c0,6.133,0,12.271-0.686,18.404
		c-1.358,15.001-13.637,25.914-28.632,25.914H24.408l1.092,9.338l181.587,0.162c2.729-14.322,4.095-38.138,4.095-53.139v-98.864
		C211.182,60.228,174.361,22.045,127.999,18.636"/>
	<path fill="#FFCB5B" d="M33.909,215.685v-43.64c0-11.592,2.727-22.498,10.91-30.678c7.5-7.501,15.681-7.501,21.137-6.143
		c-4.774-4.768-10.91-7.494-17.728-7.494c-15.001-0.683-27.956,11.589-27.956,28.635v52.501c0,16.359,2.044,32.726,5.454,48.406
		c6.139,0,10.91-5.453,10.227-11.592C34.592,235.453,33.909,225.912,33.909,215.685"/>
	<path fill="#82A1C4" d="M177.091,270.909L177.091,270.909c0,7.497-6.139,13.636-13.637,13.636H27.091v6.818h177.272v-6.818v-13.636
		H177.091z"/>
	<path fill="#FFCB5B" d="M47.545,120.909v-15.681c0-34.773,18.411-65.455,45-81.818c-34.091,12.954-58.637,45.68-58.637,83.862
		v13.637H47.545z"/>
	<path fill="#014463" d="M122.545,5C65.956,5,20.272,50.683,20.272,107.272v17.046C12.09,131.813,6.636,142.729,6.636,155v53.866
		c0,19.09,2.044,38.179,6.818,57.269c0.683,2.73,3.409,4.774,6.818,4.774h6.818h54.545h129.545c3.409,0,6.14-2.044,6.818-5.453
		l2.044-11.593c2.73-15.001,4.774-30.682,4.774-46.362V107.272C224.818,50.683,179.135,5,122.545,5 M211.182,207.501
		c0,14.315-1.365,29.317-4.088,43.633l-1.365,7.639l-124.092-1.5h-6.818H33.909h-8.183c-3.409-15.681-5.454-32.047-5.454-48.406V155
		c0-14.998,12.271-27.272,27.273-27.272S74.818,140.002,74.818,155v34.091c0,4.089,2.727,6.818,6.818,6.818
		c4.092,0,6.818-2.729,6.818-6.818V155c0-22.499-18.411-40.909-40.909-40.909c-4.774,0-9.544,0.676-13.636,2.73v-9.548
		c0-49.089,39.544-88.636,88.636-88.636s88.636,39.547,88.636,88.636V207.501z"/>
</g>
</svg>
