<?xml version="1.0"?>
<svg xmlns:rdf="http://www.w3.org/1999/02/22-rdf-syntax-ns#" xmlns="http://www.w3.org/2000/svg" xmlns:cc="http://web.resource.org/cc/" xmlns:dc="http://purl.org/dc/elements/1.1/" xmlns:sodipodi="http://inkscape.sourceforge.net/DTD/sodipodi-0.dtd" xmlns:svg="http://www.w3.org/2000/svg" id="Layer_1" style="enable-background:new 0 0 132.333 131.497" space="preserve" sodipodi:version="0.32" viewBox="0 0 132.333 131.497" version="1.1" sodipodi:docname="fabbrica.svg" sodipodi:docbase="F:\openclip\svg da inviare">
  <sodipodi:namedview id="base" bordercolor="#666666" borderopacity="1.0" pagecolor="#ffffff"/>
  <g id="g3">
    <radialGradient id="XMLID_9_" gradientUnits="userSpaceOnUse" cy="72.375" cx="45.71" r="87.574">
      <stop id="stop6" stop-color="#FFD53D" offset="0"/>
      <stop id="stop8" stop-color="#FFD23A" offset=".3017"/>
      <stop id="stop10" stop-color="#FFC830" offset=".5348"/>
      <stop id="stop12" stop-color="#FFB820" offset=".7449"/>
      <stop id="stop14" stop-color="#FFA209" offset=".9404"/>
      <stop id="stop16" stop-color="#f90" offset="1"/>
    </radialGradient>
    <path id="path18" fill="url(#XMLID_9_)" d="m130.32 102.66c0-1.632-0.739 1.322-0.873 1.647-0.959 2.318-2.515 4.516-4.878 5.55-2.369 1.037-4.908 1.879-7.32 2.818-12.188 4.741-24.604 8.984-37.229 12.411-13.25 3.596-28.661 7.899-42.401 4.858-10.274-2.276-22.777-6.181-31.591-12.277-7.046-4.874-4.993-16.005-4.993-23.442v-31.078c0-2.839-0.492-6.215 2.396-7.893 4.178-2.428 10.183-2.878 14.788-4.043 5.91-1.497 7.781-1.358 7.534-7.988-0.166-4.431 6.026-4.447 9.305-5.17 5.068-1.116 10.146-2.218 15.18-3.478 3.708-0.93 0.542-5.875 2.058-8.244 1.208-1.895 6.459-1.961 8.373-2.266 4.506-0.716 9.013-1.428 13.529-2.075 16.686-2.395 35.26 3.748 51.402 7.62 5.527 1.326 5.914 4.034 5.83 8.891-0.136 7.899-0.272 15.798-0.409 23.697-0.23 13.482-0.46 26.968-0.7 40.459"/>
    <linearGradient id="XMLID_10_" y2="458.13" gradientUnits="userSpaceOnUse" y1="458.13" gradientTransform="matrix(89.446 274.34 274.34 -89.446 -1.0413e5 1.0696e5)" x2="-239.41" x1="-241.08">
      <stop id="stop21" stop-color="#FFFA5F" offset="0"/>
      <stop id="stop23" stop-color="#9F3300" offset="1"/>
    </linearGradient>
    <path id="path25" fill="url(#XMLID_10_)" d="m4.464 115.4c-4.467-4.703-2.714-15.271-2.714-21.18v-29.44c0-1.957-0.184-4.033 0.06-5.987 0.502-4.061 7.084-4.516 10.173-5.285 2.717-0.675 12.341-1.428 13.941-3.978 2.642-4.208-2.209-8.277 3.987-9.62 5.008-1.086 10.01-2.19 15.003-3.342 5.363-1.239 8.187-0.825 7.884-7.247-0.271-5.727 11.755-5.158 16.198-5.839 4.566-0.699 9.029-1.602 13.652-1.24 11.515 0.897 22.976 3.554 34.222 6.077 2.922 0.656 13.925 1.42 13.925 5.99-0.219 12.458-0.437 24.915-0.654 37.373-0.137 7.784-0.273 15.566-0.409 23.351-0.084 4.772 0.388 9.433-3.646 12.998-2.494 2.202-6.821 3.101-9.934 4.33-6.777 2.679-13.635 5.196-20.58 7.412-14.895 4.751-30.498 9.29-46.174 10.266-10.833 0.674-21.144-3.227-31.006-7.321-1.506-0.62-13.936-4.99-13.936-7.32m74.743-94.753c-4.927 0-10.129 1.357-14.977 2.118-4.537 0.713-11.511 0.235-12.971 5.14 0.419 4.62 0.297 5.632-3.903 6.624-3.138 0.741-6.282 1.447-9.43 2.147-2.855 0.634-12.285 1.2-12.842 5.022-0.59 4.053 1.501 6.613-3.064 7.798-5.405 1.403-10.828 2.734-16.248 4.074-7.774 1.924-5.445 12.742-5.445 18.834v31.566c0 3.006-0.252 6.196 0.902 9.039 2.029 4.992 7.401 7.017 11.977 9.059 12.114 5.406 24.758 10.411 38.226 9.262 15.076-1.286 29.933-5.567 44.268-10.226 8.127-2.643 16.177-5.537 24.124-8.676 4.929-1.945 9.945-4.162 11.211-9.759 0.789-3.487 0.141-7.927 0.201-11.479 0.153-8.733 0.306-17.467 0.459-26.198 0.136-7.733 0.271-15.465 0.405-23.196 0.074-4.136 1.444-10.215-3.412-12.082-6.318-2.428-13.634-3.323-20.222-4.698-9.521-1.978-19.488-4.36-29.263-4.36"/>
    <path id="path27" fill="#FFB600" d="m129.28 31.6c-0.279 15.209-0.536 30.421-0.802 45.63-0.119 6.717-0.237 13.434-0.355 20.149-0.104 5.874-4.762 8.465-9.569 10.378-19.381 7.722-39.602 14.671-60.239 18.034-11.41 1.858-21.1 1.29-32.052-2.508-6.845-2.372-19.376-5.555-24.042-11.802 2.212 7.614 15.782 11.223 22.263 13.643 11.44 4.271 21.517 5.774 33.618 3.966 21.648-3.234 42.914-10.623 63.167-18.774 12.657-5.096 8.603-23.208 8.8-34.407 0.165-9.507 0.331-19.013 0.499-28.52 0.06-3.13 2.08-13.62-1.28-15.793"/>
    <path id="path29" fill="#FFE600" d="m3.777 109.18v-43.134c0-1.541-0.227-3.278 0-4.807 0-4.838 5.146-5.208 8.814-6.119 4.559-1.13 9.128-2.238 13.661-3.466 4.92-1.334-0.186-8.182 3.417-9.904 3.104-1.487 7.422-1.707 10.731-2.443 3.157-0.702 10.672-0.961 13.148-3.072 4.468-3.81-2.292-8.347 5.492-9.604 6.709-1.082 13.426-2.206 20.168-3.077 9.331-1.206 19.889 1.876 28.968 3.729 7.161 1.461 15.004 2.466 21.896 4.993-1.52-1.739-5.156-2.101-7.301-2.604-4.978-1.165-9.971-2.275-14.977-3.313-9.565-1.987-20.768-5.338-30.608-4.066-6.742 0.871-13.458 1.994-20.167 3.077-7.77 1.254-1.034 5.931-5.583 9.625-3.596 0.953-24.995 3.263-24.963 7.612-2.022 4.24 1.585 6.803-4.28 8.322-5.011 1.299-10.038 2.542-15.063 3.782-7.058 1.741-5.374 8.259-5.374 14.121v29.085c0 7.435-1.475 15.873 6.254 20.091-2.888-2.15-4.239-5.27-4.239-8.83"/>
    <path id="path31" fill="#FFE62E" d="m96.067 42.248c0 3.052-24.213-4.25-26.304-4.742-0.789-0.185-20.524-3.038-15.037-7.534 6.609-5.417 24.105-0.897 31.065 1.57 4.873 1.727 10.276 4.906 10.276 10.706"/>
    <path id="path33" fill="#FFE62E" d="m69.558 58.154c0 3.05-24.214-4.252-26.304-4.743-0.789-0.186-20.523-3.038-15.037-7.532 6.609-5.417 24.106-0.897 31.065 1.57 4.873 1.726 10.276 4.905 10.276 10.705"/>
    <path id="path35" fill="#FFE62E" d="m44.186 79.613c0 8.269 3.005 20.176-0.454 27.916-0.56 1.252-1.395 0.212-1.82-0.552-2.556-4.575-4.239-9.588-6.928-14.133-4.473-7.564-10.202-14.452-17.347-19.63-3.739-2.71-7.795-4.708-11.945-6.686-3.601-1.716-2.187-3.789 1.666-3.495 9.667 0.734 20.559 4.194 29.269 8.357 3.42 1.635 7.559 3.942 7.559 8.22"/>
    <path id="path37" fill="#FFA621" d="m74.483 54.112c0.244-3.654 8.859-5.516 11.438-6.307 4.1-1.255 11.185-1.576 12.986-6.154 0.66-1.681 0.631-3.869 1.752-5.339 1.531-2.011 6.823-1.46 9.094-1.69 5.395-0.546 10.895-1.221 16.329-1.073 5.621 0.153 1.088 2.384-1.522 3.481-5.231 2.2-10.809 3.839-15.789 6.595-6.103 3.371-12.472 6.389-18.702 9.749-7.227 3.894-9.286 11.634-17.081 14.891-6.294 2.629-13.72 3.486-20.495 3.823-0.173 0.008-7.908-0.163-6.516-1.653 2.201-2.357 10.317-2.538 13.297-3.439 7.405-2.245 14.632-4.183 15.21-12.884"/>
    <linearGradient id="XMLID_11_" y2="17.248" gradientUnits="userSpaceOnUse" y1="17.248" x2="102.94" x1="81.405">
      <stop id="stop40" stop-color="#D8554C" offset="0"/>
      <stop id="stop42" stop-color="#A10000" offset="1"/>
    </linearGradient>
    <path id="path44" fill="url(#XMLID_11_)" d="m102.49 3.333c1.123 7.583-0.212 15.592-0.266 23.222-0.054 7.406-20.857 6.598-20.821-0.231 0.038-7.277 0.438-14.561 0.747-21.833 0.131-2.984 18.124-1.356 20.344-1.158"/>
    <path id="path46" fill="#D84545" d="m102.49 3.333c0.925 4.464-19.232 5.969-20.321 0.716-0.923-4.464 19.231-5.97 20.321-0.716"/>
    <linearGradient id="XMLID_12_" y2="3.3545" gradientUnits="userSpaceOnUse" y1="3.3545" x2="99.706" x1="84.96">
      <stop id="stop49" stop-color="#A10000" offset="0"/>
      <stop id="stop51" stop-color="#A60806" offset=".0557"/>
      <stop id="stop53" stop-color="#B31E14" offset=".2298"/>
      <stop id="stop55" stop-color="#BD2C1E" offset=".4241"/>
      <stop id="stop57" stop-color="#C23524" offset=".6526"/>
      <stop id="stop59" stop-color="#C43826" offset="1"/>
    </linearGradient>
    <path id="path61" fill="url(#XMLID_12_)" d="m99.688 3.073c0.594 2.305-13.846 3.915-14.711 0.563-0.594-2.306 13.847-3.914 14.711-0.563"/>
    <path id="path63" fill="#F74B4B" d="m92.241 7.018c-3.322 0.167-6.624-0.149-9.762-1.306 5.212 4.287 14.758 2.913 20.12-0.295-3.388 0.855-6.87 1.423-10.359 1.601"/>
    <linearGradient id="XMLID_13_" y2="462.95" gradientUnits="userSpaceOnUse" y1="462.95" gradientTransform="matrix(0 -361.09 -361.09 0 1.6726e5 -86307)" x2="-238.44" x1="-240.11">
      <stop id="stop66" stop-color="#fff" offset="0"/>
      <stop id="stop68" offset="1"/>
    </linearGradient>
    <path id="path70" fill="url(#XMLID_13_)" d="m74.229 122.73c-1.312-10.549-1.02-21.169-0.244-31.747 0.341-4.653 3.527-4.156 7.847-5.598 11.522-3.843 23.042-7.687 34.563-11.529-0.537 5.957-0.925 11.93-1.023 17.917-0.039 2.367 2.164 16.265 0.354 17.271-12.86 7.14-27.085 11.14-41.501 13.69m44.941-52.46c-10.89 2.661-21.558 6.116-32.081 9.963-4.818 1.761-9.618 3.581-14.392 5.462-1.808 0.709-1.235 1.545-1.235 3.483v37.142c15.932-3.653 31.495-8.615 46.649-14.737 2.145-0.867-0.297-14.696-0.351-17.22-0.18-8.037 0.42-16.114 1.41-24.09"/>
    <path id="path72" fill="#C6C6C6" d="m115.35 93.979c0 3.198 0.148 6.397 0.436 9.583 0.074 0.816 1.04 4.347 0.607 5.104-1.339 2.35-8.819 4.487-11.125 5.467-9.865 4.191-20.504 6.735-31.04 8.599-1.312-10.549-1.02-21.169-0.244-31.747 0.341-4.653 3.527-4.156 7.847-5.598 11.522-3.843 23.042-7.687 34.563-11.529-0.62 6.687-1.06 13.411-1.06 20.123"/>
    <path id="path74" fill="#E5E5E5" d="m115.88 80.838c-0.218-0.781-9.413 0.983-10.159 1.25-4.359 1.564-6.974 5.363-11.102 7.259-1.497 0.687-17.967 6.285-18.604 4.072 0.212 0.749 18.768-9.575 20.176-10.265 1.875-0.915 18.78-5.488 19.69-2.316"/>
    <linearGradient id="XMLID_14_" y2="463.56" gradientUnits="userSpaceOnUse" y1="463.56" gradientTransform="matrix(-66.859 -264.68 -264.68 66.859 1.0682e5 -94137)" x2="-237.35" x1="-239.16">
      <stop id="stop77" stop-color="#C6C6C6" offset="0"/>
      <stop id="stop79" offset="1"/>
    </linearGradient>
    <path id="path81" fill="url(#XMLID_14_)" d="m113.13 84.51c-3.621 0-7.464 0.672-10.734 2.263-3.66 1.777-5.689 5.345-9.479 7.083-1.231 0.566-17.479 5.401-17.734 4.44 0.708 2.438 19.387-3.561 20.928-4.275 1.187-0.554 17.968-12.196 18.59-9.353-0.51-0.161-1.03-0.214-1.57-0.158"/>
    <linearGradient id="XMLID_15_" y2="465.5" gradientUnits="userSpaceOnUse" y1="465.5" gradientTransform="matrix(-39.53 -156.49 -156.49 39.53 63517 -55607)" x2="-237.01" x1="-238.64">
      <stop id="stop84" stop-color="#C6C6C6" offset="0"/>
      <stop id="stop86" offset="1"/>
    </linearGradient>
    <path id="path88" fill="url(#XMLID_15_)" d="m114.34 96.269c-3.961 0-39.458 13.578-39.43 13.67 0.145 0.61 19.219-4.832 20.439-5.178 4.966-1.409 9.823-3.288 14.429-5.624 0.76-0.387 4.04-2.867 4.56-2.867"/>
    <linearGradient id="XMLID_16_" y2="465.51" gradientUnits="userSpaceOnUse" y1="465.51" gradientTransform="matrix(-39.53 -156.49 -156.49 39.53 63517 -55600)" x2="-236.99" x1="-238.67">
      <stop id="stop91" stop-color="#C6C6C6" offset="0"/>
      <stop id="stop93" offset="1"/>
    </linearGradient>
    <path id="path95" fill="url(#XMLID_16_)" d="m115.18 106.65c-3.926 0-39.529 13.324-39.44 13.657 0.227 0.771 19.207-4.823 20.455-5.179 4.966-1.406 9.819-3.283 14.423-5.614 0.76-0.39 4.06-2.87 4.56-2.87"/>
    <path id="path97" fill="#E5E5E5" d="m115.01 92.102c0.778 2.739-38.715 13.958-39.495 11.213-1.209-4.254 39.135-12.47 39.495-11.218"/>
    <path id="path99" fill="#E5E5E5" d="m114.47 103.18c0.091 0.321-6.021 1.164-6.426 1.256-5.366 1.214-8.552 4.5-13.131 7.077-1.663 0.937-18.26 6.479-19.107 3.492 0.114 0.38 36.908-18.089 38.668-11.83"/>
  </g>
  <metadata>
    <rdf:RDF>
      <cc:Work>
        <dc:format>image/svg+xml</dc:format>
        <dc:type rdf:resource="http://purl.org/dc/dcmitype/StillImage"/>
        <cc:license rdf:resource="http://creativecommons.org/licenses/publicdomain/"/>
        <dc:publisher>
          <cc:Agent rdf:about="http://openclipart.org/">
            <dc:title>Openclipart</dc:title>
          </cc:Agent>
        </dc:publisher>
        <dc:title>Architetto -- Fabbrica</dc:title>
        <dc:date>2009-06-03T19:12:29</dc:date>
        <dc:description>Factory icon by Francesco 'Architetto' Rollandin. From OCAL 0.18 release.</dc:description>
        <dc:source>http://openclipart.org/detail/26449/architetto----fabbrica-by-anonymous</dc:source>
        <dc:creator>
          <cc:Agent>
            <dc:title>Anonymous</dc:title>
          </cc:Agent>
        </dc:creator>
        <dc:subject>
          <rdf:Bag>
            <rdf:li>architecture</rdf:li>
            <rdf:li>building</rdf:li>
            <rdf:li>clip art</rdf:li>
            <rdf:li>clipart</rdf:li>
            <rdf:li>factory</rdf:li>
            <rdf:li>icon</rdf:li>
            <rdf:li>image</rdf:li>
            <rdf:li>industrial</rdf:li>
            <rdf:li>industry</rdf:li>
            <rdf:li>media</rdf:li>
            <rdf:li>public domain</rdf:li>
            <rdf:li>svg</rdf:li>
          </rdf:Bag>
        </dc:subject>
      </cc:Work>
      <cc:License rdf:about="http://creativecommons.org/licenses/publicdomain/">
        <cc:permits rdf:resource="http://creativecommons.org/ns#Reproduction"/>
        <cc:permits rdf:resource="http://creativecommons.org/ns#Distribution"/>
        <cc:permits rdf:resource="http://creativecommons.org/ns#DerivativeWorks"/>
      </cc:License>
    </rdf:RDF>
  </metadata>
</svg>
