<?xml version="1.0" encoding="UTF-8" standalone="no"?>
<svg
   xmlns:dc="http://purl.org/dc/elements/1.1/"
   xmlns:cc="http://creativecommons.org/ns#"
   xmlns:rdf="http://www.w3.org/1999/02/22-rdf-syntax-ns#"
   xmlns:svg="http://www.w3.org/2000/svg"
   xmlns="http://www.w3.org/2000/svg"
   id="svg5589"
   version="1.1"
   viewBox="0 0 874.15955 891.60361"
   height="891.60358"
   width="874.15955">
  <defs
     id="defs5583" />
  <metadata
     id="metadata5586">
    <rdf:RDF>
      <cc:Work
         rdf:about="">
        <dc:format>image/svg+xml</dc:format>
        <dc:type
           rdf:resource="http://purl.org/dc/dcmitype/StillImage" />
        <dc:title></dc:title>
      </cc:Work>
    </rdf:RDF>
  </metadata>
  <g
     transform="translate(17.513651,-90.817899)"
     id="layer1">
    <path
       id="path6448"
       transform="translate(0,3.3203125e-6)"
       d="m 837.63867,90.818359 c -6.60508,0.04477 -13.03711,3.350767 -17.4707,9.199221 -2.34887,3.09844 -8.04534,15.96193 -10.56836,23.86719 -0.72633,2.27576 -2.18255,4.09603 -4,5 -1.57183,0.78181 -5.49938,2.82768 -8.72852,4.54687 -14.37582,7.65369 -42.37109,15.8955 -42.37109,12.47461 0,-3.57733 -3.17009,-13.68246 -4.79297,-15.27734 -1.25591,-1.23424 -3.8678,-1.75332 -9.89258,-1.96485 -9.43609,-0.33128 -10.43743,0.22376 -14.16601,7.83985 -1.29295,2.64101 -2.74626,5.56933 -3.23047,6.50781 -0.48421,0.93848 -1.17537,3.54686 -1.53516,5.79687 -0.7924,4.95535 -3.70068,5.29474 -4.18554,0.48829 -0.67264,-6.66799 -2.73664,-9.15917 -8.1211,-9.79688 -2.73031,-0.32341 -6.56366,-0.32716 -8.51953,-0.01 -3.29539,0.53477 -3.55664,0.39046 -3.55664,-1.9707 0,-2.25124 -0.58763,-2.6741 -5.04883,-3.63086 -11.89213,-2.55041 -21.38959,-1.14922 -24.17187,3.56641 -2.6275,4.45327 -3.36225,4.22405 -2.95313,-0.91992 0.53442,-6.71953 -1.53036,-7.96193 -12.48633,-7.51758 -4.86215,0.1972 -9.62734,0.72774 -10.58984,1.17969 -1.50582,0.70708 -1.75086,0.28365 -1.75586,-3.03516 -0.0239,-16.55178 -10.25557,-19.06979 -38.41602,-9.45313 -8.20744,2.80281 -15.03823,5.09571 -15.17968,5.09571 -0.14145,0 -1.29884,-2.08301 -2.57032,-4.62891 -2.30948,-4.62434 -9.08699,-11.37109 -11.42382,-11.37109 -0.68016,0 -1.41005,-0.51724 -1.6211,-1.15039 -1.01769,-3.05307 -19.66395,-1.80312 -32.62109,2.1875 -9.17688,2.82635 -16.53153,8.61309 -19.23047,15.1289 -0.87954,2.1234 -1.85142,2.83399 -3.87305,2.83399 -7.83606,0 -18.94297,9.51694 -19.99218,17.1289 -0.547,3.96846 -0.74799,4.15867 -6.06641,5.80664 -11.90932,3.69023 -17.06893,9.94483 -17.81836,21.60157 -0.37664,5.85838 -0.50651,6.10734 -4.42969,8.36523 -2.22354,1.27971 -6.0305,4.15799 -8.45898,6.39649 l -4.41602,4.06836 0.22266,7.0664 c 0.48019,15.25362 7.24276,22.30001 25.0918,26.14453 8.40058,1.80941 19.55999,2.07087 21.13476,0.4961 1.63906,-1.63906 2.50188,-1.29525 2.85352,1.13476 0.1792,1.23834 2.17757,3.51051 4.54883,5.17383 3.89547,2.73249 4.5198,2.8772 7.93164,1.83008 l 3.70312,-1.13672 -3.64258,3.00391 c -2.57719,2.12434 -4.14833,4.60244 -5.36523,8.46289 -1.96188,6.22382 -2.63009,6.62173 -4.30664,2.57422 -0.65669,-1.58539 -2.48914,-4.12195 -4.07227,-5.63868 l -2.8789,-2.75781 -5.93946,2.2207 c -3.26667,1.22165 -7.09174,3.42465 -8.5,4.89453 -3.79689,3.9631 -8.13256,14.4798 -10.16797,24.66407 -1.96843,9.84908 -2.03303,9.98819 -5.11328,10.91601 -2.06162,0.62098 -2.13647,0.30597 -2.56445,-10.875 -0.50926,-13.30461 -1.69347,-15.51652 -9.33789,-17.4414 -8.05563,-2.02843 -9.76749,-1.58728 -12.1875,3.15039 -3.19848,6.26167 -6.07929,21.39061 -5.42773,28.5 l 0.29687,3.25 h -5.55859 c -10.59869,0 -41.18024,5.28265 -46.59766,8.04883 -8.63052,4.40681 -18.33814,19.46282 -19.62891,30.44531 -2.81772,23.97441 30.42068,47.79314 55.96485,40.10547 4.60985,-1.38736 4.64714,-1.37871 4.09375,0.82617 -0.39359,1.5682 0.27202,3.11458 2.25586,5.23828 l 2.8164,3.01367 -8.00195,1.5432 c -16.1324,3.10771 -25.24362,11.6008 -33.35938,31.0957 -8.27575,19.8793 -5.22119,30.70633 10.98243,38.92774 15.20431,7.71438 37.36806,9.609 60.47656,5.16992 l 3.10156,-0.5957 -2.12305,6.54687 c -4.13249,12.75393 -8.18729,16.09641 -36.08593,29.74024 -13.27164,6.4905 -26.57341,13.45096 -29.56055,15.46875 -19.59532,13.23645 -26.29451,28.61457 -22.45898,51.55273 0.93393,5.5853 1.93175,10.76578 2.21875,11.51367 0.62985,1.64137 -5.33539,1.75466 -19.69141,0.375 -5.225,-0.50214 -18.95871,-1.81075 -30.51953,-2.9082 -11.56083,-1.09745 -23.93583,-2.4533 -27.5,-3.01367 -12.83173,-2.01745 -46.61637,-5.09375 -55.94531,-5.09375 -21.70212,0 -70.1836,3.27606 -86.53516,5.84765 -21.40623,3.36653 -24.0897,4.82652 -37.95312,20.65235 -10.43834,11.91591 -10.71084,21.54166 -1.35547,47.75 2.10278,5.89077 3.93888,7.11377 6.75586,4.5 1.10537,-1.02564 1.22305,-0.90094 0.65625,0.69531 -1.98336,5.58562 -3.51882,11.86952 -4.65625,19.05469 -0.69652,4.4 -1.64069,10.25 -2.09766,13 -0.45697,2.75 -1.24557,7.7 -1.75195,11 -2.39444,15.60406 -6.22907,36.02674 -6.87696,36.62304 -0.39664,0.36505 -9.0457,4.90624 -19.2207,10.09375 -73.769555,37.60986 -107.276117,65.88755 -108.755859,91.78321 -0.496596,8.69048 -1.901863,7.18915 14.755859,15.78125 6.299929,3.24952 12.700037,5.77765 16,6.32031 14.131819,2.32387 13.466674,2.01936 13.820312,6.33203 0.182007,2.21959 -0.678011,6.9685 -1.990234,10.98828 -3.011498,9.22524 -3.106965,18.3901 -0.232422,22.24024 3.557762,4.76524 18.625826,11.66296 33.011719,15.10937 23.168006,5.55032 46.073475,5.17666 78.115235,-1.27344 14.20593,-2.8597 44.08663,-9.88096 51.52539,-12.10742 1.48891,-0.44564 1.75,0.16156 1.75,4.07422 0,2.82542 0.48202,4.73388 1.25,4.94922 0.6875,0.19277 3.0329,0.74128 5.21289,1.21875 4.85959,1.06436 5.57893,3.41664 4.40039,14.41016 -1.03531,9.65747 0.0922,13.60403 5.44922,19.0625 5.60651,5.71265 12.15704,8.86708 28.6875,13.81445 65.05324,19.46968 152.04854,37.77133 202,42.49609 28.0315,2.65141 48.40861,4.69432 50.5,5.06446 1.1,0.19468 4.25,0.17904 7,-0.0352 2.75,-0.2142 18.05,-0.65515 34,-0.97852 26.37903,-0.53481 39.93599,-1.48986 64.5,-4.54492 16.16484,-2.01044 29.52777,-3.97104 36.5,-5.35547 3.85,-0.76448 10.6,-1.8891 15,-2.5 32.8327,-4.55857 81.00905,-18.78972 106,-31.3125 13.72972,-6.87986 26.11558,-18.94222 29.05859,-28.29882 2.48636,-7.90478 0.58902,-20.77245 -3.74804,-25.42774 -3.10002,-3.32715 -21.30447,-3.3213 -31.06446,0.01 -7.71954,2.63466 -10.38069,2.55766 -11.10351,-0.32227 -0.72094,-2.87245 -5.16888,-6.21285 -10.07813,-7.56836 -4.35898,-1.20358 -12.1378,-0.0956 -20.27343,2.88672 -3.081,1.12943 -5.44955,1.52098 -5.79688,0.95899 -0.66391,-1.07422 -10.4048,-27.19216 -17.12695,-45.92188 -4.68959,-13.06645 -10.8758,-37.95838 -11.6211,-46.75586 l -0.43945,-5.1875 5.0957,-1.19922 c 12.79655,-3.00985 28.44067,-10.70573 33.51954,-16.49023 3.26121,-3.71432 4.23775,-10.40303 2.10156,-14.39453 -2.68099,-5.00948 -19.02284,-11.04297 -29.91016,-11.04297 h -6.39258 l 0.68164,-31.25 c 0.60466,-27.69383 1.52815,-42.25525 3.13672,-49.5 0.37507,-1.68927 1.2089,-2.25 3.34571,-2.25 1.56535,0 4.04118,-0.93885 5.50195,-2.08789 3.08276,-2.4249 11.10531,-18.57641 12.09961,-24.35938 1.57434,-9.15653 9.80029,-33.38803 17.50195,-51.55273 7.74607,-18.26943 13.67806,-33.96971 32.30078,-85.5 9.59628,-26.55354 22.41254,-67.17558 33.75977,-107 4.85808,-17.05 10.23758,-35.5 11.95508,-41 1.71749,-5.5 7.56264,-26.65 12.98828,-47 5.42563,-20.35 11.24911,-42.175 12.9414,-48.5 1.69228,-6.325 7.52356,-28.375 12.95899,-49 7.46186,-28.31442 11.66396,-42.15402 17.1543,-56.5 9.17677,-23.97841 10.08921,-31.50422 5.07617,-41.89844 -3.67701,-7.624048 -4.75393,-8.57556 -11.40821,-10.089844 -1.52024,-0.345955 -3.05192,-0.508378 -4.57617,-0.498047 z M 233.56641,746.80469 c 0.42352,0 1.68186,1.4625 2.79687,3.25 5.59587,8.97088 25.26357,24.88679 39.96289,32.33984 12.74195,6.46059 15.41283,5.87471 18.65625,-4.08984 3.88949,-11.94943 4.38999,-12.20968 17.01758,-8.89063 3.3,0.86737 6.98138,1.64788 8.17969,1.73438 1.82914,0.13208 1.97442,0.39694 0.91015,1.65625 -0.69722,0.825 -2.97543,4.65 -5.0625,8.5 -2.08707,3.85 -5.91997,10.6 -8.51757,15 -2.59759,4.4 -8.46088,14.525 -13.0293,22.5 -14.15169,24.70431 -23.92906,41.1464 -24.97461,42 -0.33684,0.275 -1.90219,2.21768 -3.47852,4.3164 -1.57633,2.09872 -4.57106,4.68622 -6.65625,5.75 -2.08518,1.06378 -3.92262,1.87986 -4.08203,1.81446 -0.15941,-0.0654 -5.1339,-1.93692 -11.05468,-4.16016 l -10.76368,-4.04297 0.59766,-3.58789 c 0.95607,-5.73555 3.59977,-13.38093 5.56445,-16.08984 2.4754,-3.41309 6.86828,-15.42623 6.86328,-18.77149 -0.002,-1.49994 -1.3162,-6.09501 -2.91992,-10.21093 -2.84856,-7.31079 -4.57849,-9.47224 -12.02734,-15.01758 -1.84699,-1.375 -4.84881,-3.625 -6.66992,-5 -1.82111,-1.375 -4.44988,-3.30871 -5.84375,-4.29688 -3.15459,-2.23643 -3.18262,-4.46617 -0.16016,-13.27734 2.91613,-8.50118 13.63322,-31.42578 14.69141,-31.42578 z m 118.28515,29.99023 c 0.30919,0.0165 0.48291,0.44385 0.85547,0.81641 1.34719,1.34719 1.28835,1.46069 -13.0293,25.69336 -5.1994,8.8 -17.05209,31.50622 -26.33984,50.45703 -9.28774,18.9508 -17.43721,34.8061 -18.11133,35.23437 -5.31283,3.37524 -7.49301,-4.63164 -4,-14.6914 2.36458,-6.80994 10.69275,-21.28917 21.57032,-37.5 4.98221,-7.425 15.54948,-23.85 23.48242,-36.5 12.48689,-19.91181 14.6447,-23.55923 15.57226,-23.50977 z m 266.48828,8.88672 4.27539,0.3125 4.27539,0.31055 2.7129,7.5 c 1.49209,4.125 5.19513,14.25 8.23046,22.5 14.53571,39.50787 17.17213,46.79465 20.79883,57.5 5.61974,16.5885 5.86719,17.42266 5.86719,19.77929 0,1.46357 -1.3391,2.9086 -4.25,4.58399 -4.87486,2.80582 -12.20823,4.3225 -13.19336,2.72851 -3.52651,-5.706 -26.20174,-94.24074 -28.01953,-109.40234 z m -229.375,0.41211 c 3.90931,-0.0304 10.41527,0.19496 21.14844,0.66406 46.44373,2.02985 97.15185,2.82476 135.88672,2.13086 20.9,-0.3744 38.06017,-0.65746 38.13477,-0.63086 0.0746,0.0266 4.43752,14.89688 9.69531,33.04688 5.25779,18.15 12.10527,41.775 15.21484,52.5 9.00549,31.06016 9.3714,32.46745 8.64453,33.11914 -1.35186,1.21202 -29.9057,6.77082 -42.68945,8.31055 -7.15,0.86117 -24.025,2.28395 -37.5,3.1621 -32.06844,2.08987 -67.40975,2.43474 -81.5,0.79493 -6.05,-0.7041 -18.2,-1.73712 -27,-2.29493 -18.9159,-1.19905 -32.01943,-2.58312 -43,-4.54492 -4.4,-0.78612 -9.74051,-1.68772 -11.86719,-2.00195 -2.12668,-0.31422 -4.15168,-0.74594 -4.5,-0.96094 -0.34832,-0.215 -4.90781,-1.12451 -10.13281,-2.02148 -7.84762,-1.34719 -23.49587,-5.82026 -24.85742,-7.10547 -0.35079,-0.33113 47.134,-110.66805 48.75781,-113.29492 0.34329,-0.55534 1.65515,-0.84261 5.56445,-0.87305 z"
       style="fill:#000000" />
    <path
       id="path6446"
       d="m 591.5,967.42128 c 46.27756,-4.21834 74.69973,-9.40759 108.38671,-19.78897 5.4377,-1.67574 14.2127,-4.29742 19.5,-5.82594 9.64826,-2.78925 29.15528,-12.21136 34.44002,-16.63491 1.55469,-1.30135 3.21649,-2.36609 3.69288,-2.36609 1.26468,0 11.98039,-13.95522 11.98039,-15.60224 0,-0.76877 0.48238,-1.39776 1.07196,-1.39776 1.0134,0 0.53954,-8.70516 -0.72126,-13.25 -1.45896,-5.25915 -25.61441,1.22319 -38.42889,10.31275 -4.27371,3.03143 -18.11804,8.72043 -22.95267,9.43188 l -4.53087,0.66673 -6.16335,-13.33068 C 686.78175,875.85896 677.52071,851.9761 666.04348,817.80537 l -11.25195,-33.5 -8.7753,0.21287 c -4.82642,0.11708 -9.00579,0.44336 -9.28748,0.72505 -1.26513,1.26513 11.43476,36.85885 24.99826,70.06208 18.01995,44.11255 20.77299,51.12008 20.77299,52.87515 0,9.59059 -19.08371,21.27427 -43.5,26.63216 -13.76354,3.02025 -43.50966,7.96673 -48,7.9819 -2.2,0.007 -7.6,0.64366 -12,1.41383 -19.27111,3.37318 -96.85636,2.92514 -148.982,-0.86033 -55.299,-4.01593 -94.05237,-14.11734 -107.48402,-28.01666 l -2.92423,-3.02605 2.99093,-7.5 c 4.24913,-10.65502 9.39527,-22.61734 12.40841,-28.84364 1.42229,-2.939 3.86671,-8.564 5.43203,-12.5 1.56533,-3.936 4.29486,-10.30636 6.06563,-14.15636 5.67398,-12.33636 8.07787,-17.76986 12.60898,-28.5 2.43866,-5.775 5.52608,-12.975 6.86093,-16 3.55706,-8.06091 9.53468,-23.322 9.24748,-23.60919 -0.1363,-0.13631 -4.08315,-0.55903 -8.77077,-0.93938 l -8.52294,-0.69154 -1.34939,2.87005 c -0.74217,1.57853 -6.48688,14.12006 -12.76602,27.87006 -6.27914,13.75 -19.55247,42.4375 -29.49628,63.75 -17.75538,38.05499 -18.13215,38.75 -21.00638,38.75 -5.83431,0 -25.16567,-5.45724 -37.31236,-10.53326 -7.99453,-3.34087 -21.34296,-7.76234 -33.38687,-11.05892 l -6.38687,-1.74818 -2.82309,3.42018 c -4.38611,5.31379 -5.21846,8.15168 -4.46218,15.21376 0.63429,5.92289 0.87276,6.38941 3.86749,7.56608 9.45993,3.71693 54.38689,18.26814 60.75783,19.6786 4.08853,0.90517 10.50709,2.73263 14.26347,4.06103 6.59313,2.33158 26.15473,7.37049 41.67022,10.73391 4.125,0.89421 14.925,3.24237 24,5.21813 22.43869,4.88525 54.55915,10.36411 75.5,12.87821 16.77524,2.01398 138.14627,1.40629 162.5,-0.81363 z"
       style="fill:#a36d00;fill-opacity:1" />
    <path
       id="path6444"
       d="m 521.5,936.79534 c 34.80642,-1.33586 56.18471,-2.77495 66,-4.44284 4.675,-0.79441 15.7,-2.65323 24.5,-4.13072 15.08138,-2.53211 51.60776,-10.96349 57.85822,-13.35541 2.64639,-1.01273 2.80653,-1.37048 2.16081,-4.82739 -0.38357,-2.05349 -0.79747,-3.83632 -0.91979,-3.96185 -0.9941,-1.02025 -12.7626,2.28896 -18.60696,5.23213 -3.98287,2.00574 -7.54556,3.2754 -7.91709,2.82146 -3.76001,-4.59406 -24.60002,-73.94238 -34.54622,-114.95784 l -2.69962,-11.13249 -5.06084,-0.67134 c -2.85652,-0.37893 -5.47547,-0.25672 -6.01277,0.28058 -0.89128,0.89128 4.15597,23.70066 7.77927,35.15574 1.70286,5.38362 12.7293,45.39919 14.46656,52.5 0.67281,2.75 2.08495,7.925 3.13809,11.5 2.28841,7.76831 6.68951,26.37523 6.33925,26.80103 -0.83811,1.01883 -23.53311,6.49467 -37.47891,9.04288 -15.61527,2.85327 -22.60823,3.74002 -48.42368,6.14039 -13.91691,1.29402 -67.90422,1.31363 -85.57632,0.0311 -27.94387,-2.02802 -68.88328,-7.34346 -84.5,-10.97121 -4.4,-1.02212 -11.93701,-2.58961 -16.74891,-3.48333 -4.8119,-0.89371 -12.0119,-2.73237 -16,-4.08592 -8.57807,-2.91137 -7.75109,-2.79493 -7.75109,-1.0913 0,0.761 1.7162,2.93412 3.81378,4.82916 12.11237,10.9428 48.64506,18.45234 106.18622,21.82729 10.725,0.62905 19.6875,1.32737 19.91667,1.55182 0.7278,0.71282 34.69228,0.37255 60.08333,-0.60194 z"
       style="fill:#a36d00;fill-opacity:1" />
    <path
       id="path6440"
       d="m 714.46147,900.82056 c 2.76953,-1.09165 6.79156,-3.14692 8.93784,-4.56726 3.80081,-2.51525 3.876,-2.67825 2.89019,-6.26518 -1.31095,-4.76996 -2.03216,-5.15024 -9.7895,-5.16186 -8.46405,-0.0127 -14,1.50891 -14,3.84798 0,2.25776 2.97122,11.23318 4.26417,12.88113 1.29062,1.64499 1.77763,1.5985 7.6973,-0.73481 z"
       style="fill:#a36d00;fill-opacity:1" />
    <path
       id="path6438"
       d="m 290.30059,898.55537 c 1.00947,-3.82477 -0.0176,-4.5707 -6.4436,-4.67971 -2.80611,-0.0476 -4.33866,-0.58015 -4.74933,-1.65033 -1.06841,-2.78424 0.52298,-12.72075 3.11023,-19.41996 4.02163,-10.41327 18.60596,-33.94482 32.22531,-51.99492 4.77451,-6.32779 11.01808,-14.88008 13.87458,-19.00508 2.85651,-4.125 7.00409,-9.975 9.21687,-13 3.76936,-5.15297 7.96535,-12.24351 7.96535,-13.46016 0,-0.29691 -3.79675,-0.53984 -8.43721,-0.53984 h -8.43722 l -6.9445,11.75 c -3.81948,6.4625 -13.13645,22.325 -20.70437,35.25 -7.56792,12.925 -17.22969,29.35 -21.4706,36.5 -4.24092,7.15 -8.76007,14.9125 -10.04257,17.25 -2.21517,4.03741 -2.5602,4.25023 -6.89767,4.25459 -2.51122,0.003 -11.72438,-1.64681 -20.47368,-3.66518 l -15.90782,-3.66976 -2.84218,3.18095 c -3.1054,3.47555 -3.58815,5.1494 -1.48511,5.1494 4.84098,0 43.41608,14.02415 53.28828,19.37319 1.59207,0.86263 5.38518,1.56444 8.57606,1.58677 5.62422,0.0394 5.73598,-0.0152 6.57918,-3.20996 z"
       style="fill:#a36d00;fill-opacity:1" />
    <path
       id="path6432"
       d="m 104.5,884.24988 c 5.225,-0.85109 14.9,-2.19668 21.5,-2.99018 6.6,-0.79351 14.925,-2.10794 18.5,-2.92097 3.575,-0.81302 11,-2.44131 16.5,-3.61843 5.5,-1.17711 15.56215,-3.89837 22.36034,-6.04724 45.29876,-14.31867 61.79944,-33.64933 48.96918,-57.36769 -1.60412,-2.9654 -9.57181,-10.09104 -10.37993,-9.28293 -0.22981,0.22982 0.33537,4.60976 1.25596,9.73321 l 1.67381,9.31536 -4.43968,3.86763 c -26.33697,22.94347 -84.56043,39.61905 -128.482314,36.79819 -15.543041,-0.99825 -32.462628,-6.69864 -35.781779,-12.05528 -1.580697,-2.55101 1.091289,-10.32766 5.38629,-15.67645 8.301621,-10.33846 37.500639,-29.84621 47.359783,-31.64089 3.73587,-0.68005 18.69562,-6.37607 27.13045,-10.33009 9.49057,-4.44892 14.86302,-9.22875 10.37298,-9.22875 -14.50989,0 -57.594324,20.28135 -89.592914,42.17452 -14.780211,10.1125 -22.914693,23.77075 -24.694555,41.46353 l -0.516879,5.13806 4.91957,3.05817 c 2.705763,1.682 7.966095,4.1692 11.689627,5.52713 3.723531,1.35793 8.345057,3.16451 10.270057,4.01463 4.858216,2.14549 32.99178,2.18737 46.000004,0.0685 z"
       style="fill:#4c4c4c;fill-opacity:1" />
    <path
       id="path6430"
       d="m 209.09529,880.25927 c 1.15241,-0.22789 3.67517,-2.78574 5.60614,-5.68412 1.93096,-2.89838 5.16534,-7.24252 7.18751,-9.65365 2.02216,-2.41113 3.46119,-4.59934 3.19783,-4.86269 -1.12646,-1.12646 -11.30695,2.29559 -17.4382,5.86165 -6.44005,3.74565 -6.68232,4.03187 -7.72477,9.12592 -1.42506,6.96368 -0.97515,7.21941 9.17149,5.21289 z"
       style="fill:#4c4c4c;fill-opacity:1" />
    <path
       id="path6426"
       d="m 142.5,851.69047 c 34.08194,-6.71196 57.0549,-15.46524 68.25,-26.005 3.27882,-3.08689 5.74446,-6.26579 5.7371,-7.39676 -0.0211,-3.23906 -3.61269,-13.63474 -6.45388,-18.68027 -1.45469,-2.58331 -2.76197,-5.95831 -2.90508,-7.5 -0.32887,-3.54301 4.24095,-16.22233 13.42617,-37.25201 4.50447,-10.31303 6.86017,-16.87837 6.31509,-17.60013 -14.58011,-19.30576 -38.45541,-63.17022 -54.15411,-99.49369 -9.04377,-20.92534 -14.2546,-31.07048 -15.71529,-30.59655 -0.56677,0.18389 -1.05052,4.61663 -1.1166,10.23188 -0.0641,5.44909 -0.70867,29.92989 -1.4323,54.40179 -1.03607,35.03814 -1.06305,48.1085 -0.12696,61.5 1.41962,20.30868 1.46132,39.31027 0.0999,45.50564 -0.54389,2.475 -1.25607,6.39696 -1.58261,8.71547 -0.6719,4.77059 0.65072,4.04823 -20.43134,11.15865 -6.37447,2.14994 -12.94108,4.60768 -14.59248,5.46165 -1.65139,0.85397 -5.26161,2.41105 -8.0227,3.46018 -7.18215,2.72901 -26.231264,15.6603 -37.044884,25.14753 -8.7249,7.65472 -9.25,8.33881 -9.25,12.05078 0,4.95165 0.859625,5.40928 13,6.92063 26.546844,3.30481 49.119304,3.29462 66.000004,-0.0298 z"
       style="fill:#ffcc99;fill-opacity:1" />
    <path
       id="path6424"
       d="m 43.989238,827.88292 c 6.013171,-2.7265 20.415895,-12.84847 23.401969,-16.44647 1.242523,-1.49715 -0.03178,-1.63109 -15.518766,-1.63125 -23.433903,-2.4e-4 -38.372445,-3.06366 -38.372445,-7.86896 0,-6.95009 10.121729,-24.91272 16.476824,-29.24077 1.93023,-1.31455 3.512585,-2.66309 3.516343,-2.99674 0.01278,-1.13438 18.471772,-14.54682 27.006833,-19.62336 8.23823,-4.9 29.5306,-16.35996 43.184564,-23.24275 6.10005,-3.07497 9.33028,-6.84574 7.46353,-8.71249 -0.59521,-0.59521 -24.720474,11.3719 -41.647001,20.65861 -43.934289,24.10446 -73.621093,48.31824 -77.56376,63.26419 -3.175805,12.03891 3.88922,20.20411 23.142708,26.74651 11.201987,3.80648 19.058222,3.56013 28.909201,-0.90652 z"
       style="fill:#4c4c4c;fill-opacity:1" />
    <path
       id="path6422"
       d="m 72.808958,801.85661 c 12.480608,-1.91566 26.039468,-6.42637 40.691042,-13.53693 2.475,-1.20115 7.425,-3.20482 11,-4.4526 3.575,-1.24778 10.65684,-4.10064 15.73742,-6.33969 8.39778,-3.70095 9.28032,-4.35054 9.70936,-7.1465 1.45795,-9.50119 1.59811,-18.09421 0.46676,-28.61669 -1.01724,-9.46113 -1.03438,-21.93101 -0.0861,-62.63587 0.65123,-27.95263 1.26894,-57.01439 1.3727,-64.58169 l 0.18866,-13.75873 -3.89737,-3.99127 c -4.62667,-4.73819 -5.49143,-4.92187 -5.49143,-1.16642 0,1.55366 -1.14505,6.16616 -2.54455,10.25 -8.37912,24.45084 -16.35533,60.47293 -19.0146,85.8736 -1.43106,13.66905 -4.23507,34.23104 -4.72147,34.62283 -0.12066,0.0972 -9.41253,4.50661 -20.648614,9.7987 -39.123413,18.42678 -58.015702,31.29544 -67.923671,46.26684 -7.159209,10.8179 -7.974954,18.80754 -2.147099,21.02929 4.813801,1.83517 30.556724,0.95645 47.308962,-1.61487 z"
       style="fill:#ffcc99;fill-opacity:1" />
    <path
       id="path6420"
       d="m 542,779.90527 c 11,-0.60482 28.325,-1.55925 38.5,-2.12096 25.02126,-1.3813 56.33071,-3.70583 80.52841,-5.97875 21.23781,-1.9949 24.61341,-2.8803 35.14865,-9.21933 12.93149,-7.78085 3.63879,-14.78104 -19.62123,-14.78068 L 665,747.80573 l 0.24653,-43.0686 0.24654,-43.0686 -8.24654,0.68554 c -4.53559,0.37704 -8.57067,0.97948 -8.96685,1.33873 -0.39617,0.35926 -1.18143,17.74406 -1.74502,38.63289 -1.09678,40.65065 -1.59693,47.87151 -3.42066,49.38507 -3.15753,2.62052 -19.15385,6.33313 -37.614,8.7299 -27.01383,3.50733 -149.14287,2.70241 -179.5,-1.18305 -20.77428,-2.65893 -25.64362,-4.24936 -25.02027,-8.17215 0.24297,-1.52905 1.1482,-7.50509 2.01162,-13.28009 1.67198,-11.18307 6.41398,-32.84707 12.05923,-55.09294 4.91059,-19.3509 5.20907,-18.26956 -4.80058,-17.39162 -4.5375,0.39798 -8.54054,1.18289 -8.89565,1.74425 -0.3551,0.56136 -0.95108,4.44507 -1.32438,8.63048 -3.13247,35.12025 -9.65476,64.09655 -16.34078,72.59644 l -2.28876,2.90969 -7.20021,-1.58218 C 370.2401,748.74928 362.5,746.76637 357,745.21301 c -12.23827,-3.45644 -25.0123,-4.26112 -32.15013,-2.02525 -11.62778,3.64231 -21.7637,8.6477 -22.75786,11.23844 -1.2199,3.17901 -2.05388,2.89393 25.90799,8.85614 6.6,1.4073 15.825,3.42111 20.5,4.47516 14.0656,3.17127 52.3649,9.72408 70.5,12.06218 4.95,0.63819 9.675,1.32152 10.5,1.51851 3.18649,0.76086 93.52943,-0.38984 112.5,-1.43292 z"
       style="fill:#a36d00;fill-opacity:1" />
    <path
       id="path6418"
       d="m 287.49989,772.55537 c 2.03798,-6.73229 6.34866,-16.90663 8.15292,-19.24302 7.36647,-9.53906 13.92126,-13.62629 27.29249,-17.01818 14.88704,-3.7764 28.98041,-3.13135 34.06835,1.55932 4.08973,3.77041 21.28428,7.70589 22.81892,5.22278 0.29456,-0.4766 2.65199,-11.19503 5.23873,-23.81872 2.58674,-12.6237 5.57238,-27.00218 6.63475,-31.95218 1.06237,-4.95 2.01312,-11.87385 2.11277,-15.38632 L 394,665.53272 388,663.3398 c -12.53306,-4.58068 -19.07152,-10.00267 -20.14303,-16.7035 -0.78267,-4.8946 -1.51011,-4.82055 -4.11687,0.41907 -3.97829,7.99641 -4.27164,9.84429 -4.29437,27.05062 -0.0142,10.77136 -0.42325,17.56983 -1.1066,18.39321 -3.51645,4.23707 -14.68069,-0.76789 -20.83793,-9.34169 -1.71901,-2.39368 -3.48606,-4.35214 -3.92677,-4.35214 -0.44072,0 -2.0434,2.8125 -3.56152,6.25 -4.26144,9.64926 -6.69026,11.75 -13.58499,11.75 -8.23555,0 -9.31456,-1.92691 -9.37901,-16.74917 -0.0269,-6.18704 -0.35188,-11.24954 -0.72218,-11.25 -0.37031,-4.6e-4 -2.01027,1.12417 -3.64436,2.49917 -5.434,4.57241 -19.67395,2.59445 -21.83329,-3.03269 -1.07691,-2.80639 4.07705,-17.85523 10.41554,-30.41189 10.11663,-20.0412 31.79904,-52.41528 36.73538,-54.84971 6.81433,-3.36058 25.90782,-6.72543 43.5934,-7.68249 2.52638,-0.13671 5.44501,-0.72515 6.48587,-1.30764 2.16812,-1.21334 3.50597,-0.77649 -12.81182,-4.1835 -5.35291,-1.11765 -11.42791,-2.03352 -13.5,-2.03527 -2.0721,-0.002 -7.7856,-0.70604 -12.69668,-1.56506 -10.10942,-1.7683 -22.15049,-3.05383 -41.07077,-4.38481 -7.15,-0.50298 -18.4,-1.46355 -25,-2.13461 -20.86637,-2.12159 -81.24274,-1.57035 -97.55611,0.8907 -19.77936,2.98393 -32.24695,7.66315 -46.94176,17.61774 l -7.49787,5.07923 6.99787,0.61121 c 8.33945,0.72839 9.1287,1.01863 17.49787,6.43465 5.9818,3.87107 12.82935,11.24756 18.5,19.92904 1.1,1.68405 3.01048,4.40362 4.24552,6.0435 1.23503,1.63988 7.80963,14.4791 14.61021,28.5316 29.24711,60.43524 51.02205,92.67384 81.43353,120.56533 11.53598,10.58007 16.59614,14.23458 19.86334,14.34553 0.63393,0.0215 2.14021,-3.22336 3.34729,-7.21086 z"
       style="fill:#6699ff;fill-opacity:1" />
    <path
       id="path6416"
       d="m 593,753.34106 c 6.05,-0.85256 14.35523,-2.0053 18.45607,-2.56165 4.10083,-0.55634 11.3848,-1.93389 16.18659,-3.06122 l 8.73053,-2.04968 0.55358,-5.18157 c 0.30447,-2.84986 1.0246,-18.90657 1.60028,-35.68157 0.57569,-16.775 1.31706,-32.8625 1.64751,-35.75 0.5903,-5.15826 0.55471,-5.25 -2.03688,-5.25 -2.07067,0 -2.63625,0.48367 -2.63104,2.25 0.025,8.47555 -5.98983,34.60912 -9.98449,43.38113 -4.69511,10.31016 -4.64367,10.22136 -11.37721,19.63878 -10.95908,15.3272 -17.61077,20.33192 -31.99203,24.07079 -6.61139,1.71885 -8.95914,3.21622 -3.65291,2.32978 1.925,-0.32158 8.45,-1.28224 14.5,-2.13479 z"
       style="fill:#ba840c;fill-opacity:1" />
    <path
       id="path6414"
       d="m 554,752.42392 c 37.03025,-5.32288 53.11731,-17.14331 64.80659,-47.61855 3.57119,-9.31049 10.79688,-35.842 10.71341,-39.33787 -0.0265,-1.11155 -200.2497,0.31949 -201.4556,1.43984 -3.33533,3.09872 -16.40222,56.73255 -19.16114,78.64803 -0.6352,5.04569 -0.56835,5.25034 1.71791,5.25878 1.30836,0.005 8.67883,0.49119 16.37883,1.0808 31.31217,2.39768 40.61434,2.68627 77.5,2.40438 28.45587,-0.21747 41.36975,-0.70674 49.5,-1.87541 z"
       style="fill:#6699ff;fill-opacity:1" />
    <path
       id="path6412"
       d="m 321.73026,691.05537 c 0.84713,-0.9625 2.71688,-4.35084 4.15499,-7.52964 3.10625,-6.86605 3.51523,-18.85035 1.09954,-32.22036 -1.79289,-9.92299 -1.80087,-10.5 -0.14531,-10.5 1.4839,0 3.66052,4.09521 3.66052,6.88709 0,2.82568 3.72988,16.91177 6.5594,24.7719 2.98973,8.30518 8.4352,14.74164 13.39325,15.83061 4.91991,1.08059 5.47231,-0.15681 4.13943,-9.27245 -1.25947,-8.61358 -0.1919,-25.72473 2.01005,-32.21715 2.30573,-6.79842 12.7524,-17.83723 23.89787,-25.25244 4.01546,-2.67153 7.16832,-5.64764 8.24845,-7.78604 2.0903,-4.13833 2.26589,-13.89462 0.39437,-21.91363 -1.22077,-5.2307 -1.47285,-5.53345 -6.20763,-7.45527 -2.71435,-1.10174 -5.40366,-2.61931 -5.97623,-3.37237 -1.34562,-1.76979 -27.84573,-0.20717 -34.1181,2.01182 -11.13371,3.9388 -19.39474,12.6612 -36.24374,38.26793 -10.1241,15.38637 -18.82222,37.43 -17.90205,45.36913 0.40025,3.45325 5.0562,3.24 11.48226,-0.52592 7.05692,-4.13563 9.77381,-9.59758 13.84981,-27.84321 1.86226,-8.33615 2.42028,-9.5 4.55485,-9.5 1.47973,0 1.77493,0.57161 1.42019,2.75 -0.2463,1.5125 -0.93264,6.8 -1.52519,11.75 -0.59255,4.95 -1.50659,10.62977 -2.03118,12.62172 -1.71311,6.50485 -3.14347,33.93519 -1.85078,35.49279 1.59465,1.92143 5.28942,1.73268 7.13523,-0.36451 z"
       style="fill:#ffcc99;fill-opacity:1" />
    <path
       id="path6410"
       d="m 585,657.80728 c 15.4,-0.52479 33.4,-1.6676 40,-2.53958 6.6,-0.87198 15.6,-2.01575 20,-2.54171 15.56049,-1.86003 33.3988,-5.83933 36.14388,-8.06283 1.85359,-1.5014 9.91863,-22.35474 13.86801,-35.85779 2.0108,-6.875 4.92729,-15.425 6.48108,-19 8.07519,-18.57959 23.04428,-60.43788 38.44345,-107.5 21.34964,-65.24764 24.07507,-73.71677 30.08902,-93.5 16.37547,-53.86804 26.31451,-89.69008 40.37927,-145.5339 12.90954,-51.25705 14.98439,-58.41647 23.60945,-81.4661 9.9452,-26.57758 15.14312,-49.26074 13.12805,-57.28942 -1.07706,-4.29134 -11.01674,-6.776372 -15.8241,-3.95621 -4.13262,2.42434 -9.35258,14.00165 -10.81423,23.98478 -3.78618,25.85982 -10.59164,63.1688 -17.01155,93.26085 -1.7014,7.975 -3.49333,16.525 -3.98207,19 -4.87132,24.66868 -22.29601,89.49301 -35.21262,131 -6.076,19.525 -12.8471,41.33076 -15.04687,48.45724 -4.87632,15.79753 -24.81653,71.09082 -34.99617,97.04276 -4.099,10.45 -12.21821,31.15 -18.04269,46 -5.82447,14.85 -12.6757,31.725 -15.22494,37.5 -2.54924,5.775 -5.09118,11.72452 -5.64875,13.22115 -0.73119,1.96268 -1.89518,2.86596 -4.17599,3.24066 -6.49662,1.06729 -19.53757,2.55785 -31.16223,3.56179 -6.6,0.57 -22.35,1.97383 -35,3.11964 -21.05029,1.90668 -30.92599,2.10295 -116.5,2.31527 -106.84804,0.2651 -96.27835,-0.69705 -107.34908,9.77189 -10.79524,10.2084 -7.17429,16.64262 12.10556,21.51086 9.35487,2.36215 11.63822,2.49563 57.24352,3.34648 26.125,0.4874 53.35,1.01926 60.5,1.18189 30.47614,0.69323 47.62102,0.6312 74,-0.26772 z"
       style="fill:#a36d00;fill-opacity:1" />
    <path
       id="path6408"
       d="m 130.09013,619.24178 c 6.99697,-11.93942 10.54211,-28.2249 6.60311,-30.33299 -2.64694,-1.4166 -11.71841,-1.42791 -14.35304,-0.0179 -5.29253,2.83248 -7.37223,17.20264 -3.39075,23.42915 0.70855,1.10806 1.61645,3.58306 2.01757,5.5 1.88295,8.99857 4.44849,9.39838 9.12311,1.42174 z"
       style="fill:#6699ff;fill-opacity:1" />
    <path
       id="path6406"
       d="m 538.88666,616.70105 c 24.52238,-2.97154 49.36113,-9.36154 61.1938,-15.74267 5.95678,-3.21237 6.53213,-5.55959 3.41072,-13.91454 -5.01347,-13.41934 -17.3484,-24.32928 -46.97952,-41.55221 -16.9093,-9.82845 -25.9014,-13.68626 -31.90103,-13.68626 -4.61667,0 -14.38227,14.21549 -17.68946,25.75 -0.23207,0.80941 -2.3414,1.25 -5.98432,1.25 -7.82921,0 -48.31744,5.36248 -69.93685,9.26282 -17.44439,3.14713 -18.0088,3.32438 -18.28521,5.74227 -0.15686,1.3722 -0.93949,4.2972 -1.73917,6.49999 -1.16989,3.22258 -1.30955,7.03242 -0.71479,19.5 L 411,615.30537 l 12.5,1.10012 c 16.97359,1.49385 103.66541,1.7159 115.38666,0.29556 z"
       style="fill:#ffcc99;fill-opacity:1" />
    <path
       id="path6404"
       d="m 560.00415,601.81845 c -0.34684,-1.0928 -0.32607,-4.0178 0.0462,-6.5 0.59043,-3.93726 0.98908,-4.51308 3.12451,-4.51308 2.33432,0 2.41646,0.2085 1.77291,4.5 -0.75968,5.06592 -0.70386,5.09575 6.12094,3.27039 5.16434,-1.38125 11.09515,-6.50758 12.63317,-10.91955 1.17764,-3.37817 4.79816,-4.02236 4.79816,-0.85372 0,1.80212 -5.18384,8.57189 -9,11.75344 -5.9414,4.95336 -18.30265,7.02195 -19.49585,3.26252 z"
       style="fill:#000000" />
    <path
       id="path6402"
       d="m 594.1916,614.86063 c 9.24462,-1.0696 25.80187,-2.66057 36.7939,-3.53549 10.99202,-0.87492 20.27902,-1.91229 20.63778,-2.30527 6.68369,-7.32114 25.03186,-56.2145 21.09557,-56.2145 -1.86168,0 -15.99063,19.77748 -21.60064,30.23621 l -5.56644,10.37753 -9.27588,3.67668 c -5.10174,2.02217 -16.70089,5.50301 -25.77589,7.7352 -18.22307,4.48235 -29.44917,7.58643 -32.5,8.98643 -1.1,0.50478 -3.575,1.34299 -5.5,1.86268 l -3.5,0.94489 4.1916,0.0902 c 2.30538,0.0496 11.75538,-0.78494 21,-1.85455 z"
       style="fill:#6699ff;fill-opacity:1" />
    <path
       id="path6400"
       d="m 404.27778,600.00215 0.27778,-14.30323 -5.27778,0.30323 -5.27778,0.30322 0.38361,6.5 c 0.21099,3.575 0.49106,7.4 0.62238,8.5 0.13132,1.1 0.29619,4.61337 0.36639,7.8075 l 0.12762,5.8075 4.25,-0.3075 4.25,-0.3075 z"
       style="fill:#8c8c8c;fill-opacity:1" />
    <path
       id="path6398"
       d="m 667.93123,606.6808 c 4.85469,-3.81869 7.55828,-9.61256 25.57409,-54.80589 18.91989,-47.46125 40.806,-112.03766 51.03075,-150.56954 1.75136,-6.6 3.77075,-13.575 4.48753,-15.5 1.22885,-3.30026 5.9886,-20.2915 10.36479,-37 1.0804,-4.125 3.77369,-15.6 5.98509,-25.5 2.2114,-9.9 8.72025,-36.9 14.46412,-60 5.74387,-23.1 12.50523,-51 15.02524,-62 2.52002,-11 6.45772,-28.1 8.75044,-38 5.84132,-25.22283 5.50408,-22.95832 3.2846,-22.05529 -1.04384,0.42471 -3.47288,1.20667 -5.39788,1.7377 -1.925,0.53103 -7.775,2.50278 -13,4.38166 -8.89422,3.19831 -26.43392,7.38724 -37.24618,8.89533 -4.11632,0.57414 -4.82106,1.0189 -5.31041,3.3513 -0.31032,1.47911 -0.98703,3.47069 -1.50381,4.42573 -1.51647,2.80252 -1.11522,3.80638 1.94831,4.87434 2.61367,0.91113 2.99337,1.64216 3.99832,7.69798 0.61073,3.68018 1.77679,9.61625 2.59125,13.19125 0.81446,3.575 1.49022,9.51853 1.50168,13.20785 l 0.0208,6.70784 4.45426,2.61037 c 2.44985,1.43571 4.7039,3.3969 5.00901,4.3582 0.84549,2.6639 -1.12132,11.49088 -3.75163,16.83723 -5.09771,10.36158 -5.36463,12.66603 -1.96455,16.96075 1.66237,2.09977 3.52182,5.61776 4.13212,7.81776 2.34929,8.46869 0.66756,31.9714 -2.47428,34.5789 -2.14392,1.7793 -1.79023,10.2408 0.59133,14.14693 6.19839,10.16628 -3.85502,34.44176 -15.47105,37.3572 -2.8052,0.70406 -3.04158,2.01688 -1.41685,7.86898 3.15633,11.3686 -10.15603,28.54799 -22.12186,28.54799 -2.31861,0 -3.0423,0.68228 -4.44674,4.19233 -2.36842,5.91926 -5.18354,9.56515 -9.39719,12.17039 -9.53183,5.8934 -20.81186,7.45728 -25.08351,3.47764 -2.03539,-1.89626 -2.57672,-1.99578 -4.43856,-0.81604 -4.77211,3.02381 -7.59832,3.98454 -14.92863,5.07479 -11.333,1.68557 -10.72873,3.67057 2.38264,7.82694 41.12433,13.03663 53.89128,44.13108 36.95491,90.00524 -3.61683,9.79662 -14.75264,32.35268 -19.07112,38.62937 -2.04587,2.97358 -3.58675,7.22593 -4.93917,13.63061 -2.81364,13.32457 -6.57744,26.86368 -9.49605,34.15905 -1.38767,3.46863 -2.52304,6.66563 -2.52304,7.10444 0,0.4388 -1.34316,3.441 -2.9848,6.67154 l -2.9848,5.8737 h 2.34994 c 1.29247,0 3.56537,-0.95606 5.05089,-2.12457 z"
       style="fill:#ba840c;fill-opacity:1" />
    <path
       id="path6396"
       d="m 624,595.20105 c 8.26891,-1.8015 14.37334,-4.37261 16.62088,-7.0005 3.06683,-3.58584 6.06558,-13.74382 6.72789,-22.79014 0.49186,-6.71817 1.05898,-9.15119 2.31741,-9.94201 2.6332,-1.65475 4.83382,0.89207 4.83382,5.59427 v 4.01242 l 2.19131,-2.88486 c 1.20521,-1.58667 5.82769,-6.70986 10.27216,-11.38486 13.76817,-14.4823 21.48401,-27.95413 31.69086,-55.33214 l 5.96493,-15.99983 -1.57611,-12.92754 C 697.32878,419.67538 666.34059,406.68085 603.5,424.80362 c -7.425,2.14132 -14.57904,4.03021 -15.89787,4.19753 -1.31883,0.16732 -2.72673,0.97922 -3.12867,1.80422 -0.40193,0.825 -1.47929,3.075 -2.39412,5 -5.51939,11.61401 -18.97476,26.5798 -39.07934,43.46617 -18.97258,15.93558 -29.50789,29.3816 -33.53132,42.79541 -2.25663,7.52344 -2.27475,7.87338 -0.59046,11.40537 l 1.7376,3.64379 4.72644,-4.65537 c 5.60216,-5.51792 9.40256,-6.0225 18.87023,-2.50539 10.71523,3.98057 33.91999,17.67574 48.6154,28.69223 6.12043,4.58821 12.26297,8.93732 13.65008,9.66468 6.57216,3.44623 12.7999,13.10953 15.08396,23.40511 1.21958,5.49732 1.60893,6.13807 3.40749,5.60762 1.11682,-0.32939 5.18058,-1.28516 9.03058,-2.12394 z"
       style="fill:#6699ff;fill-opacity:1" />
    <path
       id="path6394"
       d="m 402.84933,579.86265 c 2.94452,-1.1195 4.30567,-4.56312 2.61084,-6.60527 -1.47174,-1.77334 -10.12323,-1.94335 -16.54946,-0.32521 -5.03024,1.26663 -8.0363,4.41448 -6.25979,6.55505 1.29967,1.56601 16.33206,1.84542 20.19841,0.37543 z"
       style="fill:#c6c6c6;fill-opacity:1" />
    <path
       id="path6392"
       d="M 400.97039,568.23904 C 405.93668,568.06821 412.25,567.44229 415,566.8481 c 2.75,-0.59418 10.625,-1.72783 17.5,-2.51922 17.8855,-2.05883 39.02144,-5.26925 49.73255,-7.55408 5.07791,-1.08319 11.22861,-1.96943 13.66822,-1.96943 5.55383,0 7.58593,-0.75919 7.64726,-2.85699 0.0264,-0.90365 0.83159,-3.21801 1.78927,-5.14301 l 1.74123,-3.5 -3.41596,-5.88444 c -8.59652,-14.80862 -0.10155,-30.22962 33.34441,-60.53038 C 560.79433,455.34011 568.5,447.65104 568.5,445.46539 c 0,-1.779 -0.14481,-1.79516 -2.46482,-0.27503 -1.35565,0.88826 -4.16815,1.63209 -6.25,1.65296 -3.21937,0.0323 -4.16935,0.59283 -6.35524,3.75 -3.35498,4.84575 -9.83709,9.25476 -15.72227,10.69399 -4.29619,1.05064 -4.91633,1.59385 -7.09489,6.21488 -2.64111,5.60217 -6.71712,8.30318 -12.53008,8.30318 -2.50471,0 -3.4809,0.50272 -3.87071,1.99335 -0.75501,2.88715 -13.95914,9.00665 -19.43378,9.00665 -2.817,0 -4.27821,0.43868 -4.27821,1.28439 0,3.42037 -11.48613,6.66378 -17.5,4.9416 -2.63372,-0.75422 -3.06105,-1.40041 -3.5,-5.29255 -0.54504,-4.83279 -0.8433,-4.9525 -7.99145,-3.20735 -2.45324,0.59893 -4.7281,0.40771 -7.6502,-0.64307 l -4.15874,-1.49548 -13.84981,6.32684 c -7.61739,3.47977 -14.9748,7.09564 -16.3498,8.03528 -1.375,0.93963 -5.51099,2.9666 -9.1911,4.50437 -7.55408,3.15655 -16.90874,10.57284 -20.97707,16.63044 -4.41419,6.57257 -6.22593,17.05473 -5.50585,31.85512 0.92521,19.01647 1.2595,20.31037 5.0332,19.48152 1.69488,-0.37226 7.14493,-0.81661 12.11121,-0.98744 z"
       style="fill:#6699ff;fill-opacity:1" />
    <path
       id="path6390"
       d="m 483.03954,487.79034 c 2.86572,-1.08955 2.85445,-0.74894 0.34161,-10.32745 -0.90788,-3.4607 -1.26049,-3.77913 -3.54876,-3.20481 -6.52437,1.63751 -9.13849,6.6771 -6.7254,12.9655 0.70301,1.83203 5.8345,2.12483 9.93255,0.56676 z"
       style="fill:#ff0000;fill-opacity:1" />
    <path
       id="path6388"
       d="m 504.7974,479.02925 c 0.88405,-0.97687 1.91131,-3.67687 2.28279,-6 0.76651,-4.79348 0.52238,-4.87973 -10.17294,-3.59452 -4.57123,0.54931 -5.20848,0.93242 -6.223,3.74131 -2.16095,5.98298 -0.80634,7.62933 6.27739,7.62933 4.6967,0 6.62367,-0.43678 7.83576,-1.77612 z"
       style="fill:#ff0000;fill-opacity:1" />
    <path
       id="path6386"
       d="m 468.16449,474.93345 c 3.40393,-2.46579 5.61312,-4.91158 11.76835,-13.02874 1.57526,-2.07736 -8.00809,-0.49092 -12.06518,1.99729 -2.96997,1.82147 -3.59963,2.91563 -6.13079,10.65337 -1.40085,4.28238 0.85473,4.41506 6.42762,0.37808 z"
       style="fill:#ff0000;fill-opacity:1" />
    <path
       id="path6384"
       d="m 525.13726,467.44096 c 2.37665,-2.0443 2.73806,-3.07603 2.6695,-7.62069 -0.0969,-6.42222 -1.13888,-7.26822 -8.16204,-6.62678 -6.57477,0.60049 -6.37964,0.39957 -6.93899,7.14458 -0.7505,9.05007 5.81001,12.79849 12.43153,7.10289 z"
       style="fill:#ff0000;fill-opacity:1" />
    <path
       id="path6382"
       d="m 487.00883,466.79108 c 1.63435,-2.64443 9.14752,-5.30446 14.58823,-5.16495 l 5.59707,0.14352 1.13612,-3.79203 c 0.62486,-2.08561 2.15618,-4.73225 3.40293,-5.88141 2.38204,-2.19559 10.45636,-5.29084 13.80177,-5.29084 1.08078,0 1.96505,-0.65973 1.96505,-1.46607 0,-6.41728 7.22785,-11.91041 15.88582,-12.07314 3.60636,-0.0678 4.66772,-0.4886 5.10274,-2.02319 2.12178,-7.48479 7.96326,-11.9048 15.76144,-11.92603 3.01187,-0.008 4.25,-0.42787 4.25,-1.44057 0,-4.58193 2.48792,-8.12534 6.45712,-9.19653 4.02018,-1.08496 15.81876,-1.52914 20.48748,-0.77129 2.03591,0.33048 2.60342,-0.14651 3.39466,-2.85318 0.89376,-3.05741 1.22297,-3.25033 5.5554,-3.25558 9.78143,-0.0118 14.94165,-2.72648 19.86882,-10.4524 2.3514,-3.68704 2.4041,-4.02931 0.7699,-5 -12.33345,-7.32586 -14.8311,-10.51483 -14.26347,-18.21136 0.3035,-4.11504 1.06139,-5.9506 3.71603,-9 7.12717,-8.18699 9.34421,-8.49839 22.68065,-3.18559 9.55603,3.80681 10.86557,3.66548 19.00569,-2.05111 14.23017,-9.99345 18.31414,-16.45199 19.09816,-30.20247 l 0.49178,-8.62508 -4.38111,-0.63192 C 668.9715,314.0923 661.6,313.35083 655,312.79215 c -6.6,-0.55869 -15.825,-1.49217 -20.5,-2.0744 -4.675,-0.58224 -15.25,-1.68506 -23.5,-2.45072 -19.5884,-1.81795 -31.57624,-3.1226 -50.5,-5.49597 -8.525,-1.06918 -19.55,-2.39973 -24.5,-2.95677 -4.95,-0.55705 -12.68635,-1.50465 -17.19189,-2.1058 -9.40491,-1.25483 -10.30246,-0.95871 -10.32346,3.4059 -0.0235,4.87709 -3.49057,17.43252 -6.83504,24.75172 -2.94622,6.44766 -3.08669,6.58124 -8.15004,7.75 -2.83368,0.65409 -5.99126,1.18926 -7.01684,1.18926 -3.07242,0 -3.242,1.69525 -0.92793,9.27611 2.76122,9.0457 11.47501,21.12547 16.30122,22.59808 1.72919,0.52763 6.51898,1.99861 10.64398,3.26884 10.67873,3.28838 28.39046,3.32843 35.06572,0.0793 2.51115,-1.22228 4.98615,-2.22324 5.5,-2.22434 0.51386,-10e-4 3.97178,-1.99863 7.68428,-4.43895 7.13628,-4.69084 7.95461,-4.5882 4.79835,0.60185 -5.40672,8.89065 -20.47259,14.81402 -37.72793,14.83332 l -5.17957,0.006 -3.78086,7 c -2.98555,5.52754 -4.26248,7 -6.07043,7 -3.30274,0 -2.89365,-2.5568 1.21044,-7.5653 1.925,-2.34921 3.5,-4.71615 3.5,-5.25987 0,-1.37313 -12.53046,-5.17504 -17.05536,-5.17504 -2.0452,0 -9.73192,1.52861 -17.08159,3.3969 -13.08226,3.32553 -13.59419,3.37642 -24.36305,2.42201 -16.6616,-1.47666 -38.14851,-0.6702 -42.5,1.59514 -13.40907,6.98061 -18.91589,18.53115 -18.97555,39.80115 -0.0235,8.35789 0.10417,8.8617 3.1127,12.28823 4.81086,5.47926 10.61554,8.32354 21.61121,10.58944 l 10.02742,2.06638 17.32789,-3.12035 c 11.55596,-2.08096 22.83544,-4.92765 33.86211,-8.54603 9.09382,-2.98412 19.65634,-6.14525 23.47226,-7.02472 3.81592,-0.87948 7.64092,-1.9593 8.5,-2.3996 3.39638,-1.74074 12.06196,-2.22547 12.06196,-0.67471 0,0.97423 -1.92031,1.86547 -5.75,2.66867 -16.26479,3.4112 -36.59053,11.05789 -43.86561,16.50255 -2.51965,1.8857 -7.38439,9.74111 -7.38439,11.92404 0,0.281 2.61,0.5109 5.8,0.5109 6.93303,0 8.2,1.03521 8.2,6.7 0,4.06406 1.12069,5.53178 2.50883,3.28571 z"
       style="fill:#ffcc99;fill-opacity:1" />
    <path
       id="path6380"
       d="m 633.25,341.22662 c -1.78492,-1.79583 -0.61187,-4.1715 2.5,-5.06302 3.09188,-0.88579 3.33004,-1.30938 4.89503,-8.70636 0.90477,-4.2764 1.80477,-7.91415 2,-8.08389 0.99062,-0.86129 10.29136,-4.56798 11.46186,-4.56798 2.10348,0 7.37494,10.01353 7.37007,14 -0.007,5.88732 -0.98134,8.14439 -3.35731,7.77873 -1.31536,-0.20243 -1.95746,-0.88637 -1.69221,-1.80247 0.98774,-3.41135 1.22479,-10.2686 0.37505,-10.84898 -0.50513,-0.345 -1.63045,-1.6694 -2.5007,-2.94309 l -1.58228,-2.31582 -3.60976,3.16941 c -3.35651,2.94706 -3.60975,3.57083 -3.60975,8.8915 0,4.71775 -0.41363,6.11068 -2.3566,7.93601 -2.44085,2.29305 -8.57864,3.87876 -9.8934,2.55596 z"
       style="fill:#000000" />
    <path
       id="path6378"
       d="m 546.73897,451.60722 c 0.95643,-1.0979 2.26782,-3.76131 2.91419,-5.91871 1.27556,-4.25745 0.37869,-5.68668 -4.96826,-7.91733 -6.86128,-2.86239 -10.1849,0.90231 -10.1849,11.53651 v 5.56657 l 5.25,-0.63544 c 3.40827,-0.41252 5.86004,-1.3357 6.98897,-2.6316 z"
       style="fill:#ff0000;fill-opacity:1" />
    <path
       id="path6376"
       d="m 565.28417,439.66583 c 4.84887,-1.11925 4.95704,-1.22742 6.07629,-6.07629 1.69784,-7.35542 1.94486,-7.09887 -6.32423,-6.56819 -8.6413,0.55457 -10.53623,1.71858 -10.53623,6.47221 0,7.15488 1.87591,8.22855 10.78417,6.17227 z"
       style="fill:#ff0000;fill-opacity:1" />
    <path
       id="path6374"
       d="m 592.84361,424.05537 c 0.25391,-0.4125 0.77474,-2.84202 1.15741,-5.39894 0.6955,-4.64721 0.69452,-4.64921 -2.65263,-5.4012 -3.63675,-0.81706 -12.23543,-0.71255 -15.1915,0.18463 -1.52064,0.46152 -1.73001,1.19851 -1.19668,4.21245 1.31637,7.43903 0.93464,7.15306 9.54816,7.15306 4.33048,0 8.08134,-0.3375 8.33524,-0.75 z"
       style="fill:#ff0000;fill-opacity:1" />
    <path
       id="path6372"
       d="m 609.73678,417.11298 c 2.10626,-0.42507 2.96893,-1.38809 3.74442,-4.17997 1.67623,-6.03463 1.38928,-7.13599 -1.7312,-6.64451 -1.5125,0.23823 -4.4792,0.70519 -6.59267,1.0377 -3.52642,0.55481 -3.78992,0.81476 -3.20167,3.15853 0.35255,1.40468 0.90544,3.87614 1.22864,5.49212 0.43733,2.18667 1.00044,2.77834 2.20166,2.3133 0.88772,-0.34366 2.84559,-0.87339 4.35082,-1.17717 z"
       style="fill:#ff0000;fill-opacity:1" />
    <path
       id="path6370"
       d="m 634.67037,413.9266 c 0.36871,-0.34168 0.80988,-2.64623 0.98039,-5.12123 l 0.31002,-4.5 h -5.94908 -5.94909 l -1.79242,4.82751 c -0.98582,2.65514 -1.54147,5.23355 -1.23477,5.72981 0.5867,0.94929 12.48166,0.13266 13.63495,-0.93609 z"
       style="fill:#ff0000;fill-opacity:1" />
    <path
       id="path6368"
       d="m 651.31336,408.55537 c -0.30382,-3.15104 -0.46727,-3.259 -5.36787,-3.54548 l -5.05451,-0.29548 0.41392,3.54548 c 0.41185,3.52781 0.4386,3.54548 5.36786,3.54548 h 4.95396 z"
       style="fill:#ff0000;fill-opacity:1" />
    <path
       id="path6366"
       d="m 662.72837,399.70595 c 3.15061,-0.51551 9.00061,-2.26506 13,-3.8879 L 683,392.86744 l 2.5,2.97798 c 2.88849,3.44075 4.65735,3.63034 11.38182,1.21995 6.72121,-2.40922 11.75217,-7.59636 14.50374,-14.95399 2.25619,-6.03299 2.29731,-6.07284 6.94204,-6.72752 6.40129,-0.90228 15.22346,-6.28239 17.42085,-10.62394 2.09977,-4.1487 2.21245,-11.91404 0.25271,-17.41627 -0.77608,-2.17894 -1.31883,-4.02531 -1.20611,-4.10302 0.11272,-0.0777 3.20805,-1.80194 6.8785,-3.83159 9.419,-5.20845 12.82645,-10.60638 12.82645,-20.31909 0,-3.99585 -0.64865,-8.59278 -1.5,-10.63034 -1.91257,-4.57743 -1.92852,-11.70542 -0.0318,-14.21311 0.8075,-1.06762 1.4825,-2.54666 1.5,-3.28676 0.0175,-0.7401 0.90137,-2.56682 1.96417,-4.05939 1.35982,-1.90969 2.14079,-5.28252 2.63582,-11.38344 0.97573,-12.02539 -0.42356,-16.61491 -6.71849,-22.03595 -4.62563,-3.98348 -6.22708,-7.70629 -3.92664,-9.12804 0.50769,-0.31377 1.21161,-1.88423 1.56428,-3.48992 0.35267,-1.60569 1.358,-3.51303 2.23407,-4.23853 2.0895,-1.73038 8.28267,-14.68817 8.26418,-17.29089 -0.01,-1.39333 -1.58481,-2.8944 -5.03128,-4.79538 -6.13295,-3.38277 -6.73124,-4.82441 -7.9271,-19.10098 -1.41385,-16.87918 -3.14981,-24.63185 -5.51548,-24.63185 -0.70087,0 -1.78883,-2.04339 -2.4177,-4.54086 -0.62887,-2.49747 -1.69479,-4.69441 -2.36872,-4.88209 -0.67392,-0.18768 -3.03146,-0.88122 -5.23899,-1.54121 -2.20752,-0.65999 -7.33403,-1.50055 -11.39224,-1.86791 l -7.37856,-0.66793 -1.21863,-4.81087 c -1.56635,-6.18361 -1.9296,-6.48746 -8.70828,-7.28416 -5.51774,-0.6485 -5.70357,-0.59196 -6.33595,1.92763 -0.36463,1.45281 -1.5984,2.8666 -2.80207,3.21091 -6.3355,1.81229 -5.95187,1.93978 -4.223,-1.40348 0.86482,-1.67239 1.57241,-4.69588 1.57241,-6.71886 v -3.67814 l -7.76174,0.44932 c -5.33173,0.30864 -8.66683,1.04235 -10.6527,2.34354 -3.33348,2.18418 -13.47988,6.45264 -15.35461,6.45948 -1.33367,0.005 -1.1392,-1.42135 1.3372,-9.80718 1.09205,-3.69797 1.06144,-4.3931 -0.21501,-4.88292 -2.58591,-0.99231 -11.788,0.42906 -18.98767,2.93285 l -6.94271,2.41444 0.39592,-9.07628 c 0.35958,-8.24321 0.20216,-9.25144 -1.71507,-10.98461 -4.31235,-3.89835 -11.96177,-2.257 -31.89605,6.844 -13.15157,6.00435 -14.72875,6.33393 -16.28086,3.40211 -11.10414,-20.97483 -42.10813,-25.03142 -56.40768,-7.38043 -1.80128,2.22346 -3.58527,5.05515 -3.96443,6.29265 -0.59624,1.94605 -1.38947,2.25648 -5.87198,2.29803 -9.74629,0.0903 -14.82731,4.58813 -16.04347,14.20197 -0.54924,4.34182 -0.42147,4.75 1.48698,4.75 1.49301,0 1.91492,0.45066 1.48087,1.58178 -0.33385,0.86999 -0.60699,1.99499 -0.60699,2.5 0,0.50502 -3.9375,0.92485 -8.75,0.93296 -13.02801,0.022 -16.65579,2.77194 -17.80867,13.49962 l -0.64634,6.01436 3.3525,0.98564 c 5.97892,1.7578 4.51394,4.48407 -4.12263,7.67205 -12.79332,4.72234 -16.76762,9.51442 -15.13563,18.25005 1.13031,6.05027 3.23595,8.86095 10.47062,13.97657 5.37024,3.79729 6.29605,4.09905 13.45363,4.38522 4.96282,0.19842 9.63543,-0.26217 13.18652,-1.29984 10.40423,-3.04022 9.64871,-3.15414 10.27967,1.55005 0.31181,2.32469 1.24284,4.90262 2.06896,5.72874 3.0897,3.08971 13.4471,2.53212 22.73729,-1.22404 1.36131,-0.5504 1.5225,0.12367 1.13807,4.7594 -0.71727,8.6493 0.23836,9.55747 10.41597,9.89872 l 8.61103,0.28872 -4.65582,5 c -4.18211,4.49126 -4.59565,5.35612 -4.06444,8.5 1.83444,10.85685 4.42199,14.70636 12.96927,19.29445 3.37371,1.81097 6.06712,2.20605 17.20226,2.52331 l 13.20226,0.37617 3.24024,-4.59697 c 2.60014,-3.68885 3.82213,-4.59696 6.18584,-4.59696 h 2.94559 l -0.66334,6.47461 c -0.79118,7.7223 -0.0504,8.18749 11.49655,7.21944 3.78983,-0.31773 6.8906,-0.33563 6.8906,-0.0398 0,0.29586 -0.71796,3.00762 -1.59547,6.02615 -1.81419,6.24058 -1.27316,11.2235 1.49013,13.72424 1.60454,1.4521 2.71786,1.53923 8.23044,0.64416 6.30989,-1.02453 6.39518,-1.00712 8.36399,1.70805 6.12557,8.44774 11.25591,9.79345 23.92715,6.27621 4.44607,-1.23413 8.87126,-2.45177 9.83376,-2.70586 1.33221,-0.3517 1.75,0.15093 1.75,2.10539 0,2.4775 0.21477,2.56739 6.13437,2.56739 h 6.13436 l -0.59271,6.75 c -2.3092,26.29807 -9.33016,37.94671 -28.82605,47.82603 -3.70278,1.87634 -4.82901,3.05205 -5.39587,5.63295 -0.7973,3.63008 -2.70648,7.0404 -6.04108,10.79102 -4.51456,5.07778 -11.51435,16.23362 -11.19455,17.84117 0.54431,2.73608 11.74745,2.29947 15.68441,-0.61125 l 3.0523,-2.25666 0.65083,2.5931 c 0.69047,2.75103 3.89862,4.65267 6.39399,3.79005 0.825,-0.28519 4.07777,-0.94031 7.22837,-1.45583 z"
       style="fill:#cccccc;fill-opacity:1" />
    <path
       id="path6364"
       d="m 634.11998,377.87489 c 6.88664,-3.32726 7.83719,-7.67126 3.29425,-15.0545 -2.94327,-4.78341 -3.28747,-5.01502 -7.45295,-5.01502 -6.58218,0 -9.13514,1.59461 -10.91475,6.81745 -2.61493,7.67442 -2.13141,10.31464 2.45347,13.39695 3.34545,2.24907 7.77021,2.19827 12.61998,-0.14488 z"
       style="fill:#ff0000;fill-opacity:1" />
    <path
       id="path6362"
       d="m 478.5,373.19362 c 14.37015,-2.7405 15.87581,-4.4347 10.14065,-11.41041 -8.24384,-10.027 -13.17431,-29.02183 -15.17905,-58.47784 -1.15584,-16.98289 -1.15992,-17 -4.05693,-17 -1.73238,0 -2.49401,0.62904 -2.72422,2.25 -0.31831,2.24129 -0.39189,2.25003 -19,2.25831 -43.98823,0.0196 -66.27879,7.95338 -68.71939,24.45912 -1.36085,9.20345 3.50782,25.64503 9.79449,33.07614 6.31869,7.46896 22.5716,11.55042 34.24445,8.59953 15.01642,-3.79614 19.88353,-5.42331 26.75,-8.94304 4.2625,-2.18494 7.75,-3.49107 7.75,-2.9025 0,2.17636 -9.88422,10.50336 -15.79603,13.30743 -9.33061,4.42565 -8.49435,7.73644 3.29603,13.04925 8.43143,3.79925 19.63096,4.37895 33.5,1.73401 z"
       style="fill:#ffcc99;fill-opacity:1" />
    <path
       id="path6360"
       d="m 491.75946,328.75018 c 4.46843,-1.24093 6.23276,-3.6714 8.80442,-12.1286 6.76785,-22.25683 6.12018,-68.19999 -1.04319,-74.00054 -4.98944,-4.0402 -8.83203,-1.10211 -14.94667,11.42842 -8.0561,16.5091 -8.76911,32.58373 -2.93781,66.23226 1.71152,9.87605 2.54475,10.57308 10.12325,8.46846 z"
       style="fill:#ffffff" />
    <path
       id="path6358"
       d="m 609.67604,298.05537 c -1.80016,-3.52249 -2.097,-7.97679 -0.6582,-9.87677 2.10205,-2.77581 1.84779,-3.12077 -2.26784,-3.07677 -6.89546,0.0737 -12.25,-2.03968 -12.25,-4.835 0,-2.98875 -2.02492,-3.19639 -4.5,-0.46146 -1.34601,1.48732 -3.07997,2 -6.76434,2 -6.85904,0 -25.12162,-4.55584 -30.20541,-7.53514 -2.31328,-1.35567 -4.96384,-2.46486 -5.89013,-2.46486 -2.18451,0 -7.45399,-8.32773 -8.17944,-12.92656 -0.31004,-1.96539 -0.96843,-5.36242 -1.4631,-7.54894 -0.71408,-3.15639 -0.56852,-4.34113 0.7065,-5.75 1.47769,-1.63283 1.47096,-1.7745 -0.0843,-1.7745 -2.78673,0 -6.48591,-2.98947 -8.80498,-7.11569 -2.38984,-4.25215 -3.51522,-4.60772 -7.71301,-2.43696 -3.55901,1.84044 -8.91036,12.77349 -10.30122,21.04588 -0.95974,5.70819 -0.40701,36.23368 0.67568,37.31638 0.27355,0.27355 7.5908,1.11082 16.26055,1.8606 8.66975,0.74978 25.43818,2.20229 37.26318,3.2278 29.8712,2.59054 45.3832,2.71413 44.17604,0.35199 z"
       style="fill:#ffcc99;fill-opacity:1" />
    <path
       id="path6356"
       d="M 458.27673,270.07821 458,255.35106 l -2.80277,-0.98445 c -4.3011,-1.51071 -6.15393,0.222 -6.42352,6.00711 -0.12446,2.67077 -0.68696,8.16804 -1.25,12.21615 -1.76631,12.69933 -1.96447,12.2155 5.00302,12.2155 h 6.02674 z"
       style="fill:#ffffff" />
    <path
       id="path6343"
       d="m 743.05436,148.63599 c 2.11189,-15.78354 2.36264,-14.83062 -3.90249,-14.83062 -5.24594,0 -5.3816,0.0742 -7.10029,3.88561 -0.96369,2.13709 -2.31137,6.86137 -2.99484,10.4984 l -1.24268,6.61278 5.59297,1.68804 c 3.07613,0.92842 6.01297,2.04664 6.5263,2.48493 1.465,1.25085 1.65405,0.62456 3.12103,-10.33914 z"
       style="fill:#a36d00;fill-opacity:1" />
  </g>
</svg>
