<?xml version="1.0" encoding="utf-8"?>
<!-- Generator: Adobe Illustrator 16.0.0, SVG Export Plug-In . SVG Version: 6.00 Build 0)  -->
<!DOCTYPE svg PUBLIC "-//W3C//DTD SVG 1.1//EN" "http://www.w3.org/Graphics/SVG/1.1/DTD/svg11.dtd">
<svg version="1.1" id="refrigerator" xmlns="http://www.w3.org/2000/svg" xmlns:xlink="http://www.w3.org/1999/xlink" x="0px"
	 y="0px" width="400px" height="312px" viewBox="0 0 400 312" enable-background="new 0 0 400 312" xml:space="preserve">
<g id="parts_group">
	<path fill="#EDF1F9" d="M32.353,270.706h335.294c5.291,0,8.824-3.533,8.824-8.823V32.471c0-5.295-3.533-8.824-8.824-8.824H32.353
		c-5.295,0-8.823,3.529-8.823,8.824v229.412C23.529,267.173,27.058,270.706,32.353,270.706"/>
	<path fill="#84BAE3" d="M367.646,23.647v229.412c0,5.291-3.532,8.824-8.823,8.824H23.529c0,5.29,3.528,8.823,8.823,8.823h335.294
		c5.291,0,8.824-3.533,8.824-8.823V32.471C376.471,27.176,372.938,23.647,367.646,23.647"/>
	<rect x="58.823" y="58.941" fill="#70B7E5" width="229.412" height="176.471"/>
	<path d="M323.529,50.118c4.868,0,8.823,3.955,8.823,8.824c0,4.868-3.955,8.823-8.823,8.823s-8.823-3.955-8.823-8.823
		C314.706,54.073,318.661,50.118,323.529,50.118"/>
	<path d="M323.529,85.412c4.868,0,8.823,3.955,8.823,8.824c0,4.868-3.955,8.823-8.823,8.823s-8.823-3.955-8.823-8.823
		C314.706,89.367,318.661,85.412,323.529,85.412"/>
	<path d="M358.823,50.118c4.868,0,8.823,3.955,8.823,8.824c0,4.868-3.955,8.823-8.823,8.823S350,63.81,350,58.941
		C350,54.073,353.955,50.118,358.823,50.118"/>
	<path d="M358.823,85.412c4.868,0,8.823,3.955,8.823,8.824c0,4.868-3.955,8.823-8.823,8.823S350,99.104,350,94.235
		C350,89.367,353.955,85.412,358.823,85.412"/>
	<path d="M323.529,120.706c4.868,0,8.823,3.955,8.823,8.823s-3.955,8.823-8.823,8.823s-8.823-3.955-8.823-8.823
		S318.661,120.706,323.529,120.706"/>
	<path d="M323.529,156c4.868,0,8.823,3.955,8.823,8.823s-3.955,8.823-8.823,8.823s-8.823-3.955-8.823-8.823S318.661,156,323.529,156
		"/>
	<path d="M358.823,120.706c4.868,0,8.823,3.955,8.823,8.823s-3.955,8.823-8.823,8.823S350,134.397,350,129.529
		S353.955,120.706,358.823,120.706"/>
	<path d="M358.823,156c4.868,0,8.823,3.955,8.823,8.823s-3.955,8.823-8.823,8.823S350,169.691,350,164.823S353.955,156,358.823,156"
		/>
	<path fill="#90CEF1" d="M138.235,191.294c-2.646,0-4.412-0.879-6.178-2.646c-3.529-3.532-3.529-8.823,0-12.356l70.588-70.588
		c3.532-3.528,8.823-3.528,12.356,0c3.523,3.533,3.523,8.823,0,12.356l-70.589,70.588
		C142.647,190.415,140.881,191.294,138.235,191.294"/>
	<path fill="#90CEF1" d="M182.353,191.294c-2.645,0-4.411-0.879-6.178-2.646c-3.528-3.532-3.528-8.823,0-12.356l26.471-26.47
		c3.532-3.529,8.823-3.529,12.356,0c3.523,3.533,3.523,8.824,0,12.356l-26.471,26.471
		C186.765,190.415,184.998,191.294,182.353,191.294"/>
	<path fill="#90CEF1" d="M138.235,147.177c-2.646,0-4.412-0.884-6.178-2.646c-3.529-3.533-3.529-8.824,0-12.356l26.47-26.471
		c3.533-3.528,8.824-3.528,12.356,0c3.529,3.533,3.529,8.823,0,12.356l-26.471,26.471
		C142.647,146.293,140.881,147.177,138.235,147.177"/>
	<path fill="#EDF1F9" d="M288.235,235.412V58.941h-8.823v22.941c0,10.586-4.412,20.293-11.469,27.354
		c-3.533,3.528-6.179,9.702-6.179,14.997v45.88c0,5.299,2.646,11.478,6.179,15.002c7.057,7.057,11.469,16.768,11.469,27.357v22.938
		H288.235z"/>
	<path d="M297.059,41.294h-26.471H50c-5.295,0-8.823,3.528-8.823,8.824v194.118c0,5.29,3.528,8.823,8.823,8.823h220.588h26.471
		c5.291,0,8.824-3.533,8.824-8.823V50.118C305.883,44.822,302.35,41.294,297.059,41.294 M58.823,58.941h202.941v22.941
		c0,5.295-2.646,11.469-6.179,14.998c-7.057,7.061-11.469,16.768-11.469,27.354v45.88c0,10.59,4.412,20.301,11.469,27.358
		c3.533,3.523,6.179,9.702,6.179,15.001v22.938H58.823V58.941z M288.235,235.412h-8.823v-22.938c0-10.59-4.412-20.301-11.469-27.357
		c-3.533-3.524-6.179-9.703-6.179-15.002v-45.88c0-5.295,2.646-11.469,6.179-14.997c7.057-7.062,11.469-16.769,11.469-27.354V58.941
		h8.823V235.412z"/>
	<rect x="332.353" y="226.588" fill="#B0C4D8" width="17.647" height="8.824"/>
	<path d="M358.823,253.059h-35.294c-5.291,0-8.823-3.533-8.823-8.823v-26.471c0-5.291,3.532-8.823,8.823-8.823h35.294
		c5.291,0,8.823,3.532,8.823,8.823v26.471C367.646,249.525,364.114,253.059,358.823,253.059 M332.353,235.412H350v-8.824h-17.647
		V235.412z"/>
	<path fill="#0094E3" d="M279.412,81.883c0,10.59-4.412,20.293-11.469,27.354c-4.412,4.411-6.179,9.706-6.179,14.997v45.889
		c0,5.29,2.646,11.469,6.179,14.993c7.057,7.065,11.469,16.768,11.469,27.357V81.883z"/>
	<rect x="58.823" y="58.941" fill="#4C9CD6" width="202.941" height="8.823"/>
	<path d="M367.646,6H32.353C17.352,6,5.883,17.469,5.883,32.471v229.412c0,15.001,11.469,26.47,26.47,26.47h21.176l6.179,12.356
		c1.762,3.524,4.411,5.291,7.94,5.291h35.294c3.528,0,6.178-1.767,7.94-5.291l6.178-12.356h165.885l6.17,12.356
		c1.767,2.646,4.411,5.291,7.944,5.291h35.294c3.533,0,6.179-1.767,7.945-5.291l6.169-12.356h21.18
		c15.002,0,26.471-11.469,26.471-26.47V32.471C394.117,17.469,382.648,6,367.646,6 M376.471,261.883c0,5.29-3.533,8.823-8.824,8.823
		H32.353c-5.295,0-8.823-3.533-8.823-8.823V32.471c0-5.295,3.528-8.824,8.823-8.824h335.294c5.291,0,8.824,3.529,8.824,8.824
		V261.883z"/>
</g>
</svg>
